<svg width="522" height="446" viewBox="0 0 522 446" fill="none" xmlns="http://www.w3.org/2000/svg">
<rect width="522" height="446" fill="#F5F5F5"/>
<g id="moneycharacter">
<rect width="522" height="446" fill="white"/>
<path id="backgorund of all" fill-rule="evenodd" clip-rule="evenodd" d="M182.099 66.159C181.817 66.895 182.044 69.485 182.604 71.914C184.279 79.183 184.785 78.832 172.64 78.832C164.405 78.832 161.479 79.168 161.1 80.157C160.82 80.885 164.23 97.198 168.677 116.407C178.269 157.841 179.657 166.257 179.665 183.01C179.67 193.999 178.426 208.855 177.197 212.488C176.912 213.331 175.636 213.236 172.488 212.138C162.611 208.692 147.601 213.233 138.619 222.385C134.344 226.741 134.209 226.795 129.091 226.194C125.115 225.726 123.203 225.995 120.921 227.343C117.351 229.452 114.671 233.683 114.671 237.208C114.671 239.357 113.664 240.276 108.501 242.837C95.2404 249.417 83.0584 260.099 80.7134 267.204C79.6814 270.331 79.7394 271.286 81.0814 273.335C81.9554 274.67 83.5714 276.243 84.6714 276.832C85.9614 277.522 86.6714 278.926 86.6714 280.785C86.6714 282.371 86.9514 284.397 87.2924 285.287C88.1254 287.458 92.9044 289.838 95.2684 289.258C96.6684 288.915 97.5684 289.656 98.6714 292.06C100.458 295.952 104.41 297.656 108.421 296.263C111.14 295.32 112.513 293.173 117.914 281.421C119.155 278.72 120.621 276.695 121.171 276.921C121.755 277.161 122.023 280.323 121.816 284.522C121.488 291.142 121.663 291.915 124.02 294.272C126.563 296.815 131.782 297.729 134.271 296.067C135.928 294.96 137.326 291.791 138.123 287.332C138.516 285.132 140.186 281.307 141.834 278.832C144.562 274.735 144.792 273.75 144.404 267.832C144.17 264.257 143.636 260.545 143.218 259.582C142.645 258.265 142.924 257.832 144.342 257.832C149.269 257.832 153.251 250.984 151.991 244.68C151.669 243.074 150.093 240.355 148.488 238.637C146.248 236.238 145.872 235.309 146.871 234.636C150.211 232.383 153.541 230.947 156.871 230.322C161.587 229.438 171.671 232.24 171.671 234.436C171.671 235.287 169.621 243.262 167.115 252.158C164.609 261.054 161.042 273.732 159.189 280.332C157.336 286.932 153.094 302.007 149.763 313.832C142.247 340.51 141.985 341.784 143.776 342.918C144.543 343.404 160.021 343.824 178.171 343.853L211.171 343.904L208.171 346.389C203.677 350.113 201.596 350.271 196.095 347.309C191.954 345.079 190.319 344.741 185.812 345.183C178.375 345.914 173.552 349.331 170.153 356.279C167.628 361.44 167.47 362.51 167.898 371.58C168.461 383.522 170.878 390.328 177.069 397.398C179.613 400.304 184.205 403.925 187.838 405.888C193.848 409.137 194.684 409.312 204.242 409.322C213.597 409.331 214.612 409.134 218.531 406.542C223.977 402.94 226.663 398.481 226.667 393.032C226.674 385.259 223.335 381.119 214.823 378.347C210.354 376.892 209.235 376.032 208.017 373.117C205.639 367.427 206.449 365.82 212.671 363.881C223.887 360.387 234.05 353.16 236.681 346.807C237.739 344.254 238.429 343.843 241.542 343.907C244.755 343.973 245.912 344.818 251.637 351.279C258.184 358.669 264.571 369.567 264.636 373.46C264.655 374.63 263.925 376.205 263.013 376.96C256.557 382.302 255.969 397.577 261.892 406.082C263.647 408.602 264.35 408.832 270.281 408.832C273.842 408.832 280.224 408.117 284.463 407.244C309.738 402.036 322.529 390.644 321.486 374.269C320.274 355.234 299.56 349.097 283.992 363.161L280.058 366.715L278.894 359.924C278.253 356.189 276.832 351.04 275.736 348.483L273.742 343.832H308.535L310.472 341.082C311.538 339.57 313.378 336.419 314.561 334.082L316.712 329.832H323.123C330.872 329.832 330.9 329.802 339.68 311.631C348.922 292.505 357.183 264.894 358.888 247.436C359.126 245.004 359.817 244.35 363.204 243.356C371.772 240.839 381.018 235.35 388.553 228.306C395.9 221.437 396.322 221.199 400.422 221.613C404.161 221.991 405.021 221.669 407.573 218.937C409.718 216.64 411.359 215.832 413.876 215.832C422.112 215.832 437.312 203.594 439.592 195.127C441.623 187.583 440.825 186.037 427.461 171.638C421.502 165.218 418.631 164.137 412.921 166.167C410.96 166.864 410.671 166.633 410.671 164.367C410.671 160.008 407.969 154.984 404.481 152.858C396.073 147.731 390.6 152.356 393.268 162.332C394.851 168.252 394.383 171.306 390.95 177.449C388.7 181.473 388.47 182.771 388.997 188.423C389.473 193.514 389.31 194.832 388.206 194.832C387.442 194.832 385.839 196.07 384.645 197.582C382.893 199.802 382.563 201.267 382.935 205.182L383.397 210.032L378.284 213.248C373.92 215.992 363.756 220.832 362.357 220.832C362.113 220.832 361.687 206.77 361.41 189.582C360.868 155.828 360.062 146.535 353.329 96.332L349.171 65.332L265.892 65.076C197.087 64.865 182.523 65.053 182.099 66.159Z" fill="#080908"/>
<g id="lefthand">
<path id="leftpalm" fill-rule="evenodd" clip-rule="evenodd" d="M125.171 229.63C119.75 230.719 116.459 238.751 120.171 241.832C121.873 243.244 122.187 245.832 120.657 245.832C120.1 245.832 118.839 245.329 117.855 244.715C116.432 243.826 114.953 244.157 110.619 246.334C95.7874 253.785 82.6034 266.479 84.3984 271.582C85.4704 274.629 88.6484 272.504 93.4884 265.503C99.5054 256.799 101.313 255.074 102.832 256.593C103.6 257.361 102.17 260.267 97.8354 266.747C89.7994 278.762 88.5944 284.832 94.2454 284.832C95.9204 284.832 97.2524 283.88 98.4364 281.836C99.3904 280.189 101.742 276.083 103.662 272.712C107.321 266.29 109.315 264.638 110.701 266.881C111.217 267.715 110.804 269.241 109.609 270.92C106.655 275.067 101.673 286.078 101.672 288.46C101.671 291.074 103.96 293.115 106.373 292.653C108.183 292.306 109.45 290.196 114.261 279.512C117.422 272.493 120.286 270.694 124.208 273.265C126.765 274.94 126.811 275.158 126.131 282.412C125.36 290.639 126.232 292.832 130.274 292.832C132.03 292.832 132.791 292.13 133.252 290.082C135.035 282.168 135.841 279.99 138.149 276.861C139.873 274.526 140.669 272.159 140.665 269.388C140.658 263.956 138.833 257.682 136.814 256.146C135.417 255.083 135.808 254.891 139.421 254.864C145.816 254.816 148.028 252.145 147.449 245.167C147.2 242.167 146.312 239.044 145.467 238.199C144.092 236.824 143.718 237.02 141.803 240.118C139.179 244.364 139.178 244.47 141.772 245.148C144.612 245.891 143.215 247.837 139.862 247.81C132.888 247.753 124.671 241.055 124.671 235.428C124.671 232.315 126.632 231.966 127.41 234.94C127.905 236.834 128.098 236.721 129.316 233.825C130.061 232.053 130.671 230.482 130.671 230.334C130.671 229.723 127.029 229.257 125.171 229.63Z" fill="white"/>
<g id="leftarm">
<path d="M176.5 214C170.4 211.778 172 211 162.5 212C153 213 147.06 215.224 138.5 223.5L134 227C128.334 226.188 125.586 226.029 122.5 227C119.087 228.204 117.58 230.326 115 234.5C114.931 236.302 114.926 236.171 115 239.5C100.186 247.144 93.1917 252.216 87 259C82.8507 263.011 81.6906 265.494 80 270C81.8681 273.882 83.4641 275.702 87 278.5C86.8075 282.681 87.0503 284.549 88.5 286.5C91.0834 288.798 92.8229 289.375 96.5 289C98.1627 290.449 99.1145 291.202 100.5 293.5C103.176 296.279 105.115 296.793 109.5 295.5L120.5 276.5H121.5L122.5 291.5C126.006 296.558 128.527 297.421 134 295.5C136.239 294.614 137.414 290.25 139.5 282C141.916 278.797 143.038 276.747 144.5 272.5L144.493 272.31C144.289 266.925 144.172 263.847 142.5 258.5L143.5 257.5C146.558 257.352 148.219 256.094 150.5 253C151.841 249.07 152.023 246.976 151 243.5C150.456 241.268 149.332 239.612 146 236L142.5 238C147.056 236.16 147.302 240.075 148 246.5C148.035 249.994 147.447 251.497 145.5 253.5C142.678 255.146 140.731 255.434 137 255.5C140.721 261.714 141.604 265.326 141 272L137 278.5L134 289C133.386 291.691 132.495 292.549 130 293L127 291.5L126 289.5L126.5 276.5L124.5 273.5L120.5 272.5L118.5 273.5L107.5 293H104L101.5 290.5V288L110.5 269L110 266.5H108L96 285H92.5L90.5 284V279.5L96 269.5L103 257.5L102.5 256.5H101.5L100.5 257L90.5 270.5L85.5 273.5L84 272V269L90 260.5C98.3067 253.547 103.105 249.914 112.5 245L116.5 244L121 245.5V243.5L119 241L118 236L122.5 230.5L128 229.5L131.5 230.5L128 236C126.869 234.106 126.222 233.274 125 233C124.579 233.994 124.477 234.731 125 237C126.219 239.531 127.131 240.953 129.5 243.5C133.372 245.788 135.434 246.85 138.5 247.5L138.6 247.496C140.626 247.406 141.792 247.354 142.5 246.5C142.95 246.024 141.89 245.51 139.5 244.5L142.5 238L146 236L150.5 232L160 229.5L171.5 233L176.5 214Z" fill="black"/>
<path d="M144.5 272.5C143.038 276.747 141.916 278.797 139.5 282C137.414 290.25 136.239 294.614 134 295.5C128.527 297.421 126.006 296.558 122.5 291.5L121.5 276.5H120.5L109.5 295.5C105.115 296.793 103.176 296.279 100.5 293.5C99.1145 291.202 98.1627 290.449 96.5 289C92.8229 289.375 91.0834 288.798 88.5 286.5C87.0503 284.549 86.8075 282.681 87 278.5C83.4641 275.702 81.8681 273.882 80 270C81.6906 265.494 82.8507 263.011 87 259C93.1917 252.216 100.186 247.144 115 239.5C114.926 236.171 114.931 236.302 115 234.5C117.58 230.326 119.087 228.204 122.5 227C125.586 226.029 128.334 226.188 134 227L138.5 223.5C147.06 215.224 153 213 162.5 212C172 211 170.4 211.778 176.5 214L171.5 233L160 229.5L150.5 232L146 236M144.5 272.5L144.493 272.31M144.5 272.5C144.498 272.436 144.495 272.373 144.493 272.31M146 236C149.332 239.612 150.456 241.268 151 243.5C152.023 246.976 151.841 249.07 150.5 253C148.219 256.094 146.558 257.352 143.5 257.5L142.5 258.5C144.172 263.847 144.289 266.925 144.493 272.31M146 236L142.5 238M142.5 238L139.5 244.5C141.89 245.51 142.95 246.024 142.5 246.5C141.792 247.354 140.626 247.406 138.6 247.496M142.5 238C147.056 236.16 147.302 240.075 148 246.5C148.035 249.994 147.447 251.497 145.5 253.5C142.678 255.146 140.731 255.434 137 255.5C140.721 261.714 141.604 265.326 141 272L137 278.5L134 289C133.386 291.691 132.495 292.549 130 293L127 291.5L126 289.5L126.5 276.5L124.5 273.5L120.5 272.5L118.5 273.5L107.5 293H104L101.5 290.5V288L110.5 269L110 266.5H108L96 285H92.5L90.5 284V279.5L96 269.5L103 257.5L102.5 256.5H101.5L100.5 257L90.5 270.5L85.5 273.5L84 272V269L90 260.5C98.3067 253.547 103.105 249.914 112.5 245L116.5 244L121 245.5V243.5L119 241L118 236L122.5 230.5L128 229.5L131.5 230.5L128 236C126.869 234.106 126.222 233.274 125 233C124.579 233.994 124.477 234.731 125 237C126.219 239.531 127.131 240.953 129.5 243.5C133.372 245.788 135.434 246.85 138.5 247.5M138.5 247.5L138.6 247.496M138.5 247.5C138.534 247.498 138.567 247.497 138.6 247.496" stroke="black"/>
</g>
</g>
<g id="legs">
<g id="leftshoewhite">
<path d="M237 344.5H211L203 350C194.011 346.285 189.145 344.335 186.5 345.5C177.868 346.14 176.986 348.395 173.5 351.5C168.345 358.784 167.635 363.816 168 373.5C169.376 383.357 171.352 388.28 176 396.5C182 401.832 185.748 404.524 193.5 408.5C200.776 409.413 204.897 409.66 212.5 408.5C219.188 406.682 222.192 404.357 226 397.5C226.589 389.924 226.074 386.503 222.5 383C219.098 380.504 216.419 379.352 211 377.5L205 368C203.807 369.431 203.8 372.001 204.13 374.373C204.526 375.812 204.762 377.078 205 378.5L199 381.5L205.5 381C209.887 381.339 212.313 381.764 216.5 383.5L221.5 386.5C222.941 390.471 223.176 392.873 222.5 397.5L212.5 405.5C206.504 406.197 203.342 406.054 198 405C191.337 403.629 188.024 401.781 182.5 397.5C177.641 391.66 175.554 387.983 172.5 381C171.432 373.419 171.335 369.245 172.5 362C174.842 357.47 176.345 355.043 179.5 351C183.148 349.543 185.1 349.203 188.5 349C192.926 350.045 194.944 351.092 198 353.5C197.884 358.776 198.151 360.994 199.5 363C202.187 368.628 203.417 371.78 204.13 374.373C203.8 372.001 203.807 369.431 205 368C210 364.5 239.5 353.5 237 344.5Z" fill="black"/>
<path d="M205 368L211 377.5C216.419 379.352 219.098 380.504 222.5 383C226.074 386.503 226.589 389.924 226 397.5C222.192 404.357 219.188 406.682 212.5 408.5C204.897 409.66 200.776 409.413 193.5 408.5C185.748 404.524 182 401.832 176 396.5C171.352 388.28 169.376 383.357 168 373.5C167.635 363.816 168.345 358.784 173.5 351.5C176.986 348.395 177.868 346.14 186.5 345.5C189.145 344.335 194.011 346.285 203 350L211 344.5H237C239.5 353.5 210 364.5 205 368ZM205 368C203.807 369.431 203.8 372.001 204.13 374.373M205 378.5L199 381.5L205.5 381C209.887 381.339 212.313 381.764 216.5 383.5L221.5 386.5C222.941 390.471 223.176 392.873 222.5 397.5L212.5 405.5C206.504 406.197 203.342 406.054 198 405C191.337 403.629 188.024 401.781 182.5 397.5C177.641 391.66 175.554 387.983 172.5 381C171.432 373.419 171.335 369.245 172.5 362C174.842 357.47 176.345 355.043 179.5 351C183.148 349.543 185.1 349.203 188.5 349C192.926 350.045 194.944 351.092 198 353.5C197.884 358.776 198.151 360.994 199.5 363C202.187 368.628 203.417 371.78 204.13 374.373M205 378.5C204.762 377.078 204.526 375.812 204.13 374.373M205 378.5C204.731 377.491 204.353 375.977 204.13 374.373" stroke="black"/>
</g>
<path id="leftshoewhite_2" fill-rule="evenodd" clip-rule="evenodd" d="M177.68 353.588C168.322 362.946 170.695 384.789 182.334 396.429C193.908 408.003 215.881 408.339 221.25 397.024C223.448 392.393 221.857 386.472 217.883 384.493C212.959 382.042 205.824 380.582 201.961 381.236C198.432 381.833 198.305 381.772 200.112 380.355C201.18 379.517 202.69 378.832 203.469 378.832C204.381 378.832 204.657 378.237 204.244 377.162C203.892 376.243 203.153 373.482 202.602 371.025C202.052 368.569 200.689 365.4 199.575 363.983C198.161 362.185 197.634 360.229 197.83 357.509C198.086 353.965 197.797 353.444 194.641 351.764C192.688 350.724 189.043 349.898 186.303 349.874C181.984 349.837 181.012 350.255 177.68 353.588Z" fill="white"/>
<g id="rightshoeblack">
<path d="M280 367C279.27 357.638 277.551 352.51 273 343.5H244.5C255.014 353.23 259.853 359.771 265.5 374.5C262.077 377.811 260.683 380.136 259 385C257.286 396.401 257.175 401.541 263.5 407.5C269.392 411.417 304.687 403.896 315.5 393C322.369 379.276 322.996 372.645 317.5 363C311.778 356.97 307.368 355.922 298.5 356C289.505 358.395 285.892 361.273 280 367L274 375.5L272.5 381.5L273.5 383.5L277.5 379.5L283.5 370.5L293.5 361.5L303 359L310.5 361.5L311.5 362.5L302 366.5C299.348 368.662 297.79 369.931 294 373C289.996 377.659 287.922 380.288 284.5 385C281.654 389.779 279.796 392.19 276 396C273.159 399.051 271.278 400.571 267.5 403H265.5C263.977 402.104 263.346 401.054 262.5 398.5C261.462 394.207 261.371 391.798 262 387.5C263.247 384.364 264.083 382.61 266.5 379.5C269.428 377.244 271.069 376.074 274 375.5L280 367Z" fill="black"/>
<path d="M243.5 343.5H244.5M280 367C279.27 357.638 277.551 352.51 273 343.5H244.5M280 367C285.892 361.273 289.505 358.395 298.5 356C307.368 355.922 311.778 356.97 317.5 363C322.996 372.645 322.369 379.276 315.5 393C304.687 403.896 269.392 411.417 263.5 407.5C257.175 401.541 257.286 396.401 259 385C260.683 380.136 262.077 377.811 265.5 374.5C259.853 359.771 255.014 353.23 244.5 343.5M280 367L274 375.5M274 375.5L272.5 381.5L273.5 383.5L277.5 379.5L283.5 370.5L293.5 361.5L303 359L310.5 361.5L311.5 362.5L302 366.5C299.348 368.662 297.79 369.931 294 373C289.996 377.659 287.922 380.288 284.5 385C281.654 389.779 279.796 392.19 276 396C273.159 399.051 271.278 400.571 267.5 403H265.5C263.977 402.104 263.346 401.054 262.5 398.5C261.462 394.207 261.371 391.798 262 387.5C263.247 384.364 264.083 382.61 266.5 379.5C269.428 377.244 271.069 376.074 274 375.5Z" stroke="black"/>
</g>
<path id="rightshoewhite" fill-rule="evenodd" clip-rule="evenodd" d="M295.99 360.933C291.21 362.316 282.437 370.918 278.75 377.836C276.466 382.121 274.998 383.842 273.832 383.6C272.088 383.238 271.897 381.82 273.089 378.082C273.967 375.326 273.112 375.265 268.97 377.792C264.743 380.368 262.405 385.127 262.315 391.331C262.237 396.693 264.198 402.832 265.989 402.832C267.884 402.832 274.316 397.858 277.362 394.037C278.986 391.999 282.601 386.957 285.395 382.832C292.186 372.804 298.142 367.23 305.076 364.412L310.817 362.079L307.595 360.955C303.849 359.65 300.447 359.643 295.99 360.933Z" fill="white"/>
</g>
<g id="body">
<path id="backbody" fill-rule="evenodd" clip-rule="evenodd" d="M256.421 70.589C209.942 70.765 188.671 71.175 188.671 71.896C188.671 72.473 190.947 82.707 193.729 94.639C196.511 106.57 199.706 120.382 200.829 125.332C201.953 130.282 203.28 135.907 203.778 137.832C204.275 139.757 205.218 147.706 205.871 155.497C207.826 178.798 205.53 197.948 197.306 226.918C193.131 241.623 184.507 272.355 178.667 293.332C176.37 301.582 173.632 311.192 172.581 314.687C171.531 318.183 170.671 321.673 170.671 322.443C170.671 323.635 182.364 323.806 248.851 323.588L327.031 323.332L329.784 318.646C336.461 307.282 345.079 284.952 349.011 268.832C354.248 247.356 355.107 236.779 355.101 193.832L355.096 154.332L350.851 121.832C348.517 103.957 346.047 85.282 345.364 80.332L344.12 71.332L334.146 70.832C328.66 70.557 293.683 70.448 256.421 70.589Z" fill="#17B86A"/>
<path id="backbody_2" d="M183 84.5H168L183 159.5C185.146 181.199 184.927 192.442 183 211.5L173 252L151 337H306.5L309.5 333H160L195.5 211.5C199.988 197.266 201.107 189.275 200 175C199.227 138.641 195.393 118.846 183 84.5Z" fill="#199A57"/>
<path id="fronbody" fill-rule="evenodd" clip-rule="evenodd" d="M222.338 79.499C221.971 79.865 221.667 81.778 221.661 83.749C221.64 91.468 215.261 100.688 207.804 103.777C206.081 104.491 204.671 105.669 204.671 106.396C204.671 107.122 206.214 114.83 208.1 123.524C213.888 150.201 214.828 157.203 214.787 173.332C214.733 194.67 214.629 195.17 192.604 279.57C190.991 285.751 189.671 291.652 189.671 292.684C189.671 293.972 191.012 295.072 193.947 296.193C196.299 297.092 199.844 299.4 201.823 301.323C205.066 304.473 206.269 306.552 208.046 312.082C208.571 313.716 211.719 313.832 255.428 313.832H302.247L306.104 309.218C310.817 303.58 316.418 300.883 323.476 300.854L328.781 300.832L331.092 295.582C335.484 285.604 340.582 269.021 343.047 256.699C349.219 225.844 349.291 172.754 343.228 124.332C340.299 100.947 340.82 102.548 335.577 100.832C326.393 97.827 322.418 93.952 320.029 85.68C318.597 80.717 318.033 79.954 315.409 79.43C311.292 78.606 223.165 78.671 222.338 79.499Z" fill="black"/>
<path id="frotbody" fill-rule="evenodd" clip-rule="evenodd" d="M226.387 90.338C224.13 97.668 220.533 102.898 215.698 105.881C213.513 107.229 211.713 109.025 211.698 109.872C211.683 110.719 212.793 116.569 214.164 122.872C220.151 150.387 220.921 157.05 220.405 176.832C220.089 188.936 219.322 198.098 218.189 203.332C216.242 212.317 196.723 287.939 196.082 288.975C195.856 289.342 197.634 290.792 200.034 292.199C205.032 295.128 209.77 300.175 211.777 304.71L213.159 307.832H299.336L302.463 303.941C306.222 299.263 312.919 295.828 319.959 294.966L325.137 294.332L327.967 287.332C334.885 270.219 339.107 250.687 340.758 228.155C342.009 211.1 341.41 159.991 339.806 146.832C339.303 142.707 338.067 132.195 337.059 123.471L335.226 107.61L330.198 105.378C322.741 102.068 318.678 98.123 315.494 91.103L312.651 84.832H228.083L226.387 90.338Z" fill="#47DF8A"/>
<path id="dollarsign" fill-rule="evenodd" clip-rule="evenodd" d="M280.036 119.324C279.484 120.761 280.504 125.627 282.383 130.524C282.804 131.62 282.349 131.92 280.643 131.67C278.869 131.41 277.948 130.174 276.671 126.332C275.438 122.623 274.448 121.249 272.84 121.012C270.157 120.617 270.027 122.585 272.294 129.24L273.918 134.004L270.319 136.971C265.519 140.927 263.926 146.112 265.99 151.054C267.211 153.976 268.685 155.229 273.579 157.506C280.456 160.706 280.159 159.998 281.214 175.724L281.843 185.115L277.507 184.43C273.076 183.729 265.671 179.593 265.671 177.818C265.671 177.276 264.771 176.832 263.671 176.832C260.63 176.832 261.166 180.558 264.679 183.84C267.788 186.744 275.321 189.832 279.297 189.832C281.33 189.832 281.598 190.38 281.869 195.082C282.127 199.565 282.463 200.332 284.171 200.332C285.867 200.332 286.247 199.499 286.671 194.841C287.053 190.649 287.585 189.271 288.921 189.017C290.378 188.741 290.671 189.441 290.671 193.2C290.671 198.09 291.916 199.704 294.215 197.796C295.147 197.022 295.671 194.721 295.671 191.398C295.671 186.769 296.001 185.964 298.731 183.946C308.186 176.955 307.797 164.898 297.973 160.468L293.979 158.667L291.825 148.401C290.64 142.755 289.671 137.611 289.671 136.97C289.671 135.25 296.794 138.418 298.793 141.027C300.609 143.397 303.671 142.918 303.671 140.265C303.671 137.537 297.781 132.873 293.465 132.183C288.659 131.415 288.09 130.835 285.331 123.907C283.067 118.222 281.109 116.527 280.036 119.324Z" fill="black"/>
<path id="frontbody" fill-rule="evenodd" clip-rule="evenodd" d="M294.671 172.332C294.671 176.457 295.088 179.832 295.598 179.832C297.324 179.832 300.671 174.579 300.671 171.871C300.671 169.465 297.173 164.832 295.357 164.832C294.979 164.832 294.671 168.207 294.671 172.332Z" fill="#47DF8A"/>
<path id="frontbody_2" fill-rule="evenodd" clip-rule="evenodd" d="M285.032 163.582C285.305 164.545 285.833 169.494 286.206 174.582C286.712 181.5 287.235 183.832 288.277 183.832C289.877 183.832 289.85 184.04 289.675 172.997C289.52 163.223 289.125 161.832 286.497 161.832C285.107 161.832 284.681 162.342 285.032 163.582Z" fill="#47DF8A"/>
<path id="frontbody_3" fill-rule="evenodd" clip-rule="evenodd" d="M271.744 142.467C268.898 146.085 269.14 148.208 272.748 151.243C276.339 154.265 279.042 154.673 278.313 152.082C278.042 151.119 277.528 148.757 277.171 146.832C275.682 138.805 275.034 138.284 271.744 142.467Z" fill="#47DF8A"/>
<path id="frontbody_4" fill-rule="evenodd" clip-rule="evenodd" d="M280.671 138.059C280.671 139.034 283.809 154.97 284.097 155.458C284.138 155.527 285.134 155.879 286.311 156.24C288.439 156.893 288.443 156.858 287.122 150.114C284.529 136.876 284.514 136.832 282.546 136.832C281.515 136.832 280.671 137.384 280.671 138.059Z" fill="#47DF8A"/>
</g>
<g id="face">
<path id="Vector" fill-rule="evenodd" clip-rule="evenodd" d="M258.323 249.55C254.998 253.38 252.631 253.652 248.46 250.682L245.441 248.532L246.174 250.932C247.097 253.951 249.4 256.611 251.733 257.352C252.723 257.666 253.826 259.263 254.186 260.901C255.617 267.416 262.609 272.832 269.587 272.832C276.207 272.832 283.74 264.794 280.016 261.704C278.834 260.722 278.013 261.175 275.547 264.167C273.184 267.033 271.808 267.832 269.233 267.832C265.24 267.832 261.396 264.996 259.639 260.755C258.512 258.035 258.572 257.17 260.084 254.364C261.045 252.579 261.683 250.027 261.501 248.693C261.172 246.275 261.162 246.278 258.323 249.55Z" fill="black"/>
<path id="Vector_2" fill-rule="evenodd" clip-rule="evenodd" d="M273.091 214.675C268.861 217.313 266.347 223.03 265.854 231.133C265.33 239.738 267.081 246.065 271.196 250.427C275.203 254.676 279.202 254.939 283.594 251.243L286.671 248.654L289.748 251.243C299.044 259.066 308.799 247.478 307.417 230.256C306.274 216.016 296.879 208.837 288.921 216.121L286.671 218.181L284.373 216.022C281.028 212.879 276.783 212.372 273.091 214.675Z" fill="black"/>
<path id="Vector_3" fill-rule="evenodd" clip-rule="evenodd" d="M274.219 218.427C268.671 223.975 267.458 237.082 271.767 244.916C273.762 248.543 274.775 249.388 277.434 249.645C280.845 249.976 281.607 248.854 279.282 246.924C277.601 245.529 275.671 238.282 275.671 233.364C275.671 230.15 275.993 229.718 278.805 229.155L281.939 228.528L279.341 227.167C276.485 225.67 276.614 223.843 279.829 220.258C280.852 219.117 281.385 217.88 281.013 217.508C279.781 216.275 275.838 216.808 274.219 218.427Z" fill="white"/>
<path id="Vector_4" fill-rule="evenodd" clip-rule="evenodd" d="M291.209 218.79C289.597 220.571 289.554 221.336 290.734 227.272C291.749 232.38 291.78 235.145 290.875 240.012C289.869 245.42 289.931 246.462 291.35 248.03C292.934 249.78 296.71 250.46 297.951 249.219C298.288 248.882 297.575 247.269 296.367 245.636C294.626 243.282 294.171 241.295 294.171 236.054C294.171 229.831 294.318 229.405 296.671 228.825L299.171 228.209L296.921 226.986C294.154 225.48 294.082 223.851 296.638 220.601C297.72 219.225 298.32 217.815 297.972 217.466C296.67 216.164 292.921 216.898 291.209 218.79Z" fill="white"/>
</g>
<g id="righthand">
<path id="rightpalm" fill-rule="evenodd" clip-rule="evenodd" d="M396.085 158.082C398.167 168.645 397.989 171.299 394.745 178.025C391.805 184.12 391.67 184.869 392.69 189.44C393.291 192.131 394.474 195.393 395.32 196.689C397.447 199.949 395.545 201.933 392.732 199.387C391.639 198.398 390.047 197.857 389.193 198.185C386.983 199.033 385.548 203.385 386.589 206.082C387.868 209.394 396.39 217.646 398.956 218.056C402.162 218.568 405.285 216.975 406.56 214.176C407.52 212.069 408.127 211.827 411.068 212.379C415.722 213.252 422.291 210.203 428.726 204.184C437.007 196.438 438.823 190.43 434.421 185.345C432.327 182.926 431.928 182.83 428.671 183.956C426.746 184.622 423.456 186.239 421.36 187.551C418.255 189.492 417.606 190.435 417.86 192.633C418.135 195.02 418.576 195.318 421.671 195.211C423.596 195.144 426.229 194.742 427.522 194.318C429.48 193.675 429.813 193.858 429.513 195.414C429.06 197.767 425.131 199.798 420.994 199.817C418.681 199.828 417.258 199.084 415.765 197.082C413.05 193.441 410.485 190.832 409.621 190.832C409.236 190.832 408.555 192.295 408.108 194.082C407.357 197.082 407.251 196.871 406.733 191.332C406.424 188.032 405.36 184.137 404.368 182.677C402.734 180.27 402.701 179.696 404.016 176.549C404.814 174.639 405.963 172.77 406.569 172.395C408.122 171.435 407.939 164.409 406.256 160.38C404.67 156.585 402.1 154.832 398.123 154.832C395.636 154.832 395.49 155.065 396.085 158.082Z" fill="white"/>
<path id="rightfinger" fill-rule="evenodd" clip-rule="evenodd" d="M421.671 176.556C418.797 177.641 412.775 182.928 412.143 184.921C411.792 186.025 412.044 187.577 412.702 188.37C413.722 189.599 414.172 189.465 415.744 187.467C416.758 186.177 420.301 183.819 423.617 182.227C426.932 180.635 429.651 178.983 429.658 178.557C429.671 177.796 425.198 175.756 423.856 175.911C423.479 175.954 422.496 176.245 421.671 176.556Z" fill="white"/>
<g id="rightarm">
<path fill-rule="evenodd" clip-rule="evenodd" d="M383 211L362 222L360 244.5C374.912 238.45 382.445 233.997 393.5 223L397.5 221.5C400.45 221.621 402.088 221.447 405 221C407.528 219.526 408.768 218.477 410.5 216C414.329 215.837 416.517 215.417 420.5 214C431.454 207.993 435.592 203.191 440 192.5L439.5 187.5C436.594 181.845 433.185 177.855 425.5 170L423 167.5L420 166L416.5 165.5L413 166.5L411 167L410.5 165.5V163V162L410 160.5L409 158.5L406 154.5L401.5 152L399 151L396 151.5L393.5 153.5L393 157.5L393.5 162L394.5 167.5L394 171L388.5 183C389.273 187.219 389.836 189.539 388.5 194.5L384 198C383.026 203.209 382.911 206.031 383 211L386.5 206.5C385.651 203.664 385.708 202.118 387.5 199.5L389 198H390H391H392L392.5 198.5L394 199.5L395 200L396 199.5L395.5 197.5L393.5 194L393 190.5L391.5 185L396.5 173L397.5 168.5L396.5 159.5L395.5 155.5L396.5 154.5L401 155L404.5 156.5L406.5 160L408 167L407.5 173L404.5 176L403.5 180L405.5 184L406.5 188.5L407.5 193.5L409 190.5H411L413 192.5L415 195.5L416.5 197.5L421 199L425.5 198.5L429 196.5V194.5L422 195.5L418 194.5L417.5 191L420 187.5L423 186L430.5 183H432.5L430.5 179L427 181.5L421 184L416.5 187.5L414.5 189.5L411.5 188.5L411 186L411.5 183L420.5 176L425.5 175L430.5 179L432.5 183L436.5 187.5L437 193.5C434.356 198.982 432.297 201.049 427 206.5C418.895 211.135 417.386 211.872 413 213L408 212.5L404.5 217.5L399 219C392.575 213.963 390.157 211.258 386.5 206.5L383 211ZM422 170L424.5 172.5C421.777 173.203 420.318 173.697 418 175L412 180L406.5 181.5L406 180L406.5 177.5L413 169.5L418 168.5L422 170Z" fill="black"/>
<path d="M383 211L362 222L360 244.5C374.912 238.45 382.445 233.997 393.5 223L397.5 221.5C400.45 221.621 402.088 221.447 405 221C407.528 219.526 408.768 218.477 410.5 216C414.329 215.837 416.517 215.417 420.5 214C431.454 207.993 435.592 203.191 440 192.5L439.5 187.5C436.594 181.845 433.185 177.855 425.5 170L423 167.5L420 166L416.5 165.5L413 166.5L411 167L410.5 165.5V163V162L410 160.5L409 158.5L406 154.5L401.5 152L399 151L396 151.5L393.5 153.5L393 157.5L393.5 162L394.5 167.5L394 171L388.5 183C389.273 187.219 389.836 189.539 388.5 194.5L384 198C383.026 203.209 382.911 206.031 383 211ZM383 211L386.5 206.5M386.5 206.5C385.651 203.664 385.708 202.118 387.5 199.5L389 198H390H391H392L392.5 198.5L394 199.5L395 200L396 199.5L395.5 197.5L393.5 194L393 190.5L391.5 185L396.5 173L397.5 168.5L396.5 159.5L395.5 155.5L396.5 154.5L401 155L404.5 156.5L406.5 160L408 167L407.5 173L404.5 176L403.5 180L405.5 184L406.5 188.5L407.5 193.5L409 190.5H411L413 192.5L415 195.5L416.5 197.5L421 199L425.5 198.5L429 196.5V194.5L422 195.5L418 194.5L417.5 191L420 187.5L423 186L430.5 183H432.5M386.5 206.5C390.157 211.258 392.575 213.963 399 219L404.5 217.5L408 212.5L413 213C417.386 211.872 418.895 211.135 427 206.5C432.297 201.049 434.356 198.982 437 193.5L436.5 187.5L432.5 183M432.5 183L430.5 179M430.5 179L427 181.5L421 184L416.5 187.5L414.5 189.5L411.5 188.5L411 186L411.5 183L420.5 176L425.5 175L430.5 179ZM424.5 172.5L422 170L418 168.5L413 169.5L406.5 177.5L406 180L406.5 181.5L412 180L418 175C420.318 173.697 421.777 173.203 424.5 172.5Z" stroke="black"/>
</g>
<path id="rightfinger_2" fill-rule="evenodd" clip-rule="evenodd" d="M411.288 172.282C403.969 179.601 405.769 184.557 413.329 177.902C415.958 175.588 419.434 173.429 421.054 173.105L423.999 172.516L421.724 170.674C418.318 167.916 415.168 168.401 411.288 172.282Z" fill="white"/>
</g>
</g>
</svg>
