<svg version="1.2" xmlns="http://www.w3.org/2000/svg" viewBox="0 0 4000 4000" width="4000" height="4000"><style>.a{fill:#ffe98b}.b{fill:#ff3939}.c{fill:#fff}.d{fill:#000076}.e{fill:#31a1f4}.f{fill:#ffd03b}.g{fill:#fc7e82}</style><path class="a" d="m4000 4000h-4000v-4000h4000z"/><path class="b" d="m3057 2661.6c0 0 39.8 109.4 54.2 302.8 14.4 193.5 21 220-4.7 240.6-25.6 20.7-119.5 20.7-119.5 20.7 0 0 1.5 56.4-88.1 89.5-89.5 33.2-140 10.1-142.9-15.9-2.9-25.9 34.7-203.5 34.7-203.5 0 0-52 21.6-124.2 0-72.2-21.7-47.6-128.5-47.6-128.5 0 0-14.5 4.3-72.2 50.5-57.8 46.2-193.1-21.2-193.1-21.2 0 0-108.4-614.6-46.4-632.8 62-18.1 300.9-98.9 374.9-73.3 73.9 25.7 281.8 161.3 299.1 180.1 17.4 18.8 75.8 191 75.8 191z"/><path class="b" d="m925.8 2427.3c0 0-105.8 228.9-138.3 393.5-32.4 164.5 184.4 446.1 201.6 446.1 17.2 0 82.1-77.7 82.1-166.6 0-89-8.6-169.1-8.6-169.1 0 0 43.3 91 138.6 112.6 95.3 21.7 212.7-62.8 212.7-62.8 0 0 108.5-618.8 104.9-624.5-3.6-5.7-385.5-233.8-593 70.8z"/><g style="opacity:.4"><path class="c" d="m799.5 2931.2c0 0 14.8-72.2 38.6-150.9 23.8-78.6 67.1-213.6 84.4-274.3 17.4-60.6 15.9-85.1 15.9-85.1 0 0-39.5 50.7-81.4 172.2-42 121.6-68.9 206.7-72.8 251.5-3.9 44.7 15.3 86.6 15.3 86.6z"/></g><g style="opacity:.4"><path class="c" d="m2958.1 2775.3c0 0-52.2 251.2-27.5 244.7 24.7-6.5 54.5-168.8 27.5-244.7z"/></g><g style="opacity:.4"><path class="c" d="m2987 2589c4 4.4 43 117.6 64.6 219.6 21.7 102 38.8 303.3 54.9 306 16.2 2.7 10.7-71.8 10.4-76.1-0.3-4.3 2.9-169.4-28.5-273.1-31.4-103.8-82.5-231.6-90.5-240.2-8-8.7-19.9-14.1-19.9-14.1z"/></g><g style="opacity:.2"><path class="d" d="m784.2 2881.4c0 0 109.5 184.1 167.9 177.6 58.5-6.5 8.7-236.1 8.7-415.8 0-179.8 28.3-288.9 28.3-288.9 0 0 92.2-61.1 120-68.6 27.8-7.4 128.3-32.4 221.7-4 93.5 28.4 148.6 52.6 148.6 52.6 0 0 21.2 11 23.6 12.4 2.5 1.4 14.3 24.9 15.8 56.4 1.4 31.5-104.9 538.2-104.9 538.2 0 0-82.5 53.4-167.1 60.6-37-15.8 0-419.2 0-419.2 0 0-67.1 165.2-68.6 390.4 0 0-82.4-27.5-115.6-82.3l-1.9 30.4c0 0 27.9 135.5-6.8 244.6-17.1 72.1-42.9 85.6-42.9 85.6l-21.9 15.5c0 0-82.1-81.7-127-174.9-45-93.2-77.9-210.6-77.9-210.6z"/></g><g style="opacity:.2"><path class="d" d="m2344.2 2941.4c0 0 100.5 46.1 148.4 34.2 48-11.9 79.4-47.6 79.4-47.6 0 0 39.3-333.1 39.3-332.5 0.1 0.5 8.1 83.4 8.1 83.4v174.3l1 87.7c0 0 36 106.2 70.7 113.7 34.6 7.6 102.6-13 102.6-13 0 0 4.7 22.8 3.7 26.9-1 4.1-40.1 209.3-40.1 209.3 0 0 2.7 56.7 40.3 52.1 37.5-4.6 134.2-30.6 160.5-58.7 26.4-28.2 29.8-43.8 49.1-45.5 19.4-1.7 77.5-10.3 83.5-12.6 6-2.4 17-8.2 20.5-12.3 3.5-4.1 15.2-12.6 12.7-16.2-2.4-3.6 0.3-60.7 0.3-60.7 0 0-47.7 41.2-68.2 22.8-20.6-18.4-34.7-229.6-44.4-214.4-9.8 15.1-48.8 250.1-100.7 263.1-52 13 12.3-355.2 19.7-485.1 7.3-129.9-5.9-232.9-5.9-232.9 0 0 0.8-38.8-13.8-52.8-14.7-13.9-209.1-134.8-239.9-136.9-30.9-2.1-267.2 37.9-315.5 57-48.3 19.1-60.7 28.1-63.2 46.3-2.6 18.3 51.9 550.4 51.9 550.4z"/></g><path fill-rule="evenodd" class="d" d="m2818.5 3348.4c-22 0-41-4.5-55.5-13.4-13.7-8.4-22-20.5-23.5-33.8-2.5-22.4 18.3-128.5 29.4-182.5-24.1 4.4-62.1 6.6-107.2-7-52.5-15.7-64.9-69-63.6-112.1-10 7.1-23.3 17.1-41 31.2-64.2 51.4-196.1-11.9-210.9-19.2-4.8-2.4-8.1-6.9-9-12.1-0.3-1.5-27.4-155.8-46.6-310.4-37.3-300.8-13.4-333.9 11.9-341.3 7.8-2.2 18.4-5.5 31.2-9.5 147.5-45.5 292.5-84.8 353.8-63.5 76.7 26.6 287.1 164 306 184.5 18.3 19.9 65.2 155.4 79.2 196.8 2.5 6.7 40.9 115.6 55.1 307.1 2.1 27.5 4 51.6 5.6 72.8 10.5 134.5 12.4 158.8-16.4 182-23.8 19.2-85.7 23.3-115.8 24.1-6 22.7-26.6 62.9-96.5 88.8-31.4 11.6-60.9 17.5-86.2 17.5zm-27.9-269.2c3.9 0 7.7 1.3 10.7 3.8 4.7 4 6.9 10.2 5.7 16.2-18.2 86-36 183.7-34.4 198.3 0.3 2.9 3.3 6.3 7.9 9.2 17 10.4 55.5 14.1 112.7-7.1 75.8-28.1 77.1-71.9 77.2-73.7-0.2-4.5 1.6-8.7 4.7-12 3.1-3.2 7.4-4.8 11.9-4.8 36.6-0.1 94.6-5.3 109.1-17 14.7-11.9 13.6-32.3 4.1-153.5-1.7-21.2-3.5-45.4-5.6-73-14-188.4-52.8-297.3-53.2-298.3q-0.1-0.2-0.1-0.4c-27.9-82-62.6-173.7-72.4-185.1-15.8-17.1-222.4-151.3-292.3-175.5-59.4-20.6-251.2 38.6-333.1 63.9-12.1 3.7-22.4 6.9-30.1 9.2-5.2 6.9-22.2 50.8 12.1 319.9 16.3 128.2 37.3 253 43 286 40.1 18.4 129.9 49.8 167.8 19.5 55.9-44.7 73.7-52.2 77.8-53.5 5.7-1.6 11.8-0.2 16.2 3.8 4.3 4.1 6.1 10.1 4.8 15.9-0.2 0.9-20.1 91.9 36.2 108.8 65 19.5 112.6 0.8 113 0.6 2.1-0.8 4.2-1.2 6.3-1.2z"/><path fill-rule="evenodd" class="d" d="m989.1 3283.5c-7.8 0-15.5-2.5-42.7-35.7-58.4-71-203.5-286.6-175.2-430.3 32.5-164.6 135.1-387.7 139.4-397.2q0.6-1.2 1.4-2.4c76.2-111.8 182.8-167.5 316.9-165.4 152.8 2.4 296.1 82.8 303.9 95.1 4.5 7 4.7 7.3-12.4 111.6-8.6 52-20.8 124.2-36.3 214.5-26.3 153.7-53.5 308.6-53.8 310.2-0.7 4.3-3.1 8.1-6.7 10.6-5 3.7-124.7 88.6-226.1 65.5-51.6-11.7-88.9-41.6-113.3-68.9 1.9 30.3 3.7 69 3.7 109.2 0 94.6-67.9 183.2-98.8 183.2zm-48.8-848c-8.4 18.4-105.9 234-136.4 388.5-28.2 142.8 147.1 386.8 186.9 423.9 18.4-14.4 63.8-77.3 63.8-147.6 0-87-8.5-166.5-8.6-167.3-0.9-8.1 4.2-15.6 12-17.8 7.9-2.3 16.1 1.5 19.6 8.8 0.4 0.8 41.3 84 127.3 103.6 75.7 17.2 170.3-40.9 193.8-56.4 39.1-222.7 95.1-548.1 102.7-606.1-33.1-19.2-184.9-100.1-341.2-74.4-90.2 14.8-164.1 63.5-219.9 144.8zm55.2 816.2q0 0 0 0z"/><path class="d" d="m1062.6 2947.9c-7.9 0-14.9-5.6-16.4-13.6-3.7-19.4-89.4-477.2-32.1-617.2 3.5-8.5 13.3-12.6 21.8-9.1 8.5 3.4 12.6 13.2 9.1 21.7-53.6 131 33.1 593.7 33.9 598.4 1.7 9-4.2 17.8-13.2 19.5q-1.6 0.3-3.1 0.3z"/><path class="d" d="m1161.8 3037.5c-3.4-147.2 19.9-393 105.5-514.1 0.9-1.2 3.1-0.2 2.5 1.3-13.4 42.1-25.7 83.2-36.5 125.1-20.2 84.1-30 170.8-34.9 257-2.5 43.1-3.8 87-3.3 130-0.4 21.6-31.9 22.5-33.3 0.7z"/><path class="d" d="m2970.7 3222.5c3.9-25.8 11.6-50.8 20.1-75.4 2.8-8.2 6.7-16.3 15.1-23.4 0.8-0.8 2.2-0.5 2.7 0.5 9 18.4 3.8 35 2.9 53.5-1.6 17.2-4 34.4-8.2 51.3-5.5 20.1-35.1 14.1-32.6-6.5z"/><path class="d" d="m2790.7 3112.4q-2 0-4.1-0.5c-8.9-2.2-14.3-11.2-12.1-20.2 1.2-4.7 119.5-479.1 139.5-660.2 1-9.1 9.2-15.7 18.4-14.7 9.1 1 15.7 9.3 14.7 18.4-20.2 183.3-135.4 645.1-140.3 664.6-1.9 7.6-8.7 12.6-16.1 12.6z"/><path class="d" d="m2974.4 2448.9c14.6 66.5 23.7 133.6 29.1 201.4 4.3 67.6 10.1 136.1-5 203-0.3 1.4-2.6 1.4-2.8-0.1-5.9-33.8-8-67-10.8-100.3-4.1-49.9-10.2-99.6-17.6-149.2-6.9-45.7-16.4-102.6-25.4-147.7-3.9-21.4 26.9-28.3 32.5-7.1z"/><path class="d" d="m2602.3 2966.1c4.7-99.5 8-201.8 4.5-301.3-1.5-33.5-3.1-66.8-1.6-101.2 0.1-0.7 0.7-1.4 1.5-1.3 0.6 0 1.1 0.4 1.3 0.9 12.1 32.3 18 66.1 21.8 99.8 10.8 101.5 12.8 203.7 5.7 305.5-2.4 21.6-33.9 19.5-33.2-2.4z"/><path class="e" d="m2538 2049.1l384.8 212.9c0 0 147.2 49.9 177.5 164.6 30.4 114.8-7.9 230.3-65.6 239-57.8 8.6-66.5-50.6-85.2-88.1-18.8-37.5-62.1-37.5-62.1-8.7 0 28.9 13 82.3-36.1 89.5-49.1 7.3-83.7-79.4-83.7-118.3-8.7-26-186.3-108.3-346.5-104-14.5 36.1-14.5 154.5 8.6 291.6 23.1 137.2 24.6 140.1 23.1 248.4-1.4 108.2 37.6 202.1 39 319 1.5 117-4.3 147.3-135.7 163.1-131.4 15.9-349.4 33.3-372.5-40.4-23.1-73.6 27.5-137.1 106.9-145.8 0 0-85.2-65-141.5-166-34.6-7.2-56.3-5.8-56.3-5.8 0 0-78 80.9-98.2 144.4-20.2 63.5 7.2 155.9-40.4 179-47.6 23.1-358 23.1-443.2 13-85.2-10.1-75.1-118.4-27.4-166 47.6-47.7 93.8-52 93.8-52 0 0-15.7-478 80.8-818.6 0 0-226.6 4-269.9 12.7-43.3 8.6-136.5 80.1-173.3 71.4-36.8-8.6-36.8-60.6-17.3-97.4 19.5-36.8 4.3-53.1 4.3-53.1 0 0-81.2 107.2-92 107.2-10.8 0-35.7-159.2 0-209 35.7-49.8 100.7-120.2 168.9-135.3 68.2-15.2 85.6-16.3 85.6-16.3 0 0 179.7-60.6 478.5-71.4 298.9-10.8 895.1 40.4 895.1 40.4z"/><path class="f" d="m2349.4 2746.8l63.2-11.9 14.3 4.7 14.5 57.8-14.4 23.9c0 0-360.5 113.1-719.5 53-237.8-35.8-306.4-83.8-306.4-83.8 0 0-10-13.4-9-14.5 1.1-1.1 7.1-59 7.1-59l20.7-5.2c0 0 164.7 60.9 481.6 73.3 316.9 12.4 447.9-38.3 447.9-38.3z"/><path class="f" d="m1680.6 2624.8l24.5-261.4c0 0 13.6-17.6 18.7-19.8 5-2.1 58.8-41.6 58.8-41.6l16.3 7c0 0 35.4 15.4 54.7 14.4 19.3-1 36.2 1.8 36.2 1.8 0 0 94.3 106.6 95.4 107.8 1.1 1.1 3.7 20.2 1 22.9-2.7 2.7-65.1 93.1-67.9 93.6-2.9 0.6 117.7 123.3 117.7 123.3h-131.8l-129.7-128.1-10.3 9.2-11.2 103-72.4-5.8z"/><path class="b" d="m2629.4 2433.8c0 0 6.7-95.7 52.2-163.7 45.5-68 88.5-87.2 88.5-87.2l19 5.2 141.4 76.9c0 0 139.3 52.9 168.7 157.4 29.3 104.6 2.7 222.6-54.4 240.5-57.1 17.8-73.7-38.5-85.9-66.6-12.3-28.2-36.6-49.9-55.1-47.7-18.6 2.2-14.3 27.2-15 49.1-0.7 21.9-1.5 71.5-52.7 59.9-51.2-11.5-63.1-84-64-87.6-0.9-3.5-12.7-40-12.7-40 0 0-30-24.1-76.8-41.4-46.9-17.3-57.2-24.4-57.2-24.4z"/><path class="b" d="m1306.3 2335c0 0-38.5-105.7-30.6-195.3 8-89.6 12.4-81.6-15.4-84.7-27.7-3-113.9 27.7-113.9 27.7 0 0-82.1 10.5-135.5 45.6-53.4 35.2-105.3 96.9-115.1 124-9.7 27.1-4.9 134.9 4.6 163.3 9.5 28.4 18.2 19.6 25.4 11.7 7.1-7.9 65.3-86.7 75.1-79.7 9.7 7-4.6 34.6-5 42.4-0.5 7.9-28.1 68.2 10.3 90.8 38.5 22.7 119.1-45.4 162.7-62 43.6-16.5 158.9-15.4 158.9-15.4 0 0-1-20.9-2.1-23.3-1.1-2.5-19.4-45.1-19.4-45.1z"/><path class="b" d="m1551.5 3177.5c0 0 95.8 11.2 154.2 9.1 58.5-2.1 105.1-4.4 105.1-4.4v13.7c0 0-18.9 40.8-21.8 73.2-2.9 32.4 17.3 130.2-34.9 154.4-52.2 24.2-351 21.8-403.6 16.2-52.5-5.7-110-21.5-103.1-85.8 6.8-64.3 37-107.7 82.8-118.8 45.8-11 43.2-19.1 46.2-28.3 2.9-9.2-0.1-45.5 0-47.7 0-2.1 19.5-9.2 19.5-9.2z"/><path class="b" d="m2196.6 3205c0 0 77.2 0.4 141.5-9.7 64.2-10 123.1-34.6 123.1-34.6l11.1 4.4c0 0 28.3 92.4 18.1 195.6-10.1 103.2-113.3 105.1-239.6 107.8-126.4 2.8-241.9 6-265.7-46.9-23.8-53 6.9-109.3 39.1-125.7 32.2-16.4 55.9-22.5 55.9-22.5l-5.5-10.7-57.2-61.2 10.2-10.8z"/><path class="b" d="m1544.4 2278.5c0 0 37.4-34.7 93.7-50.8 56.3-16 90.8-3.9 90.8-3.9l-38.1-23.8c0 0-71.8-44.2-110.2-105.6-38.4-61.4-24.8-79.6-23.2-80.4 1.6-0.8 190.1-3.7 355.5-3.4 165.3 0.2 461.3 38 461.3 38 0 0 9.8 7.8 8.4 9.1-1.5 1.2-36.3 51.4-40.5 52.8-4.3 1.4-38.6 22-38.6 22 0 0-43.1 35.1-120.6 65.3-77.6 30.1-102.2 36.1-102.5 40.4-0.3 4.4 12.2 5.1 12.2 5.1 0 0 52.8 32.4 87.8 80.1 35 47.6 33.2 67.1 33.2 67.1 0 0-35.2 33.7-137.6 20.8-102.5-12.8-157.4-79.2-157.4-79.2 0 0-14.2-10.5-18-10.7-3.8-0.3-52.5 8.6-78-2-25.5-10.6-33.9-15.9-33.9-15.9l-11.6 3.5c0 0-41 45.5-129.3 66-88.2 20.6-144.7-26.8-144.7-26.8 0 0 0.9-12.1 0-17-0.9-4.9 15.9-28.9 15.9-28.9z"/><path class="c" d="m2281.8 2321.4c0 0 17.8-182.8 83.6-240.2l17.2-23.5 30-18.5 127.6 5.6 215 124.5v22.5c0 0-66.6 39.7-101.1 133-34.5 93.2-28.7 143.2-28.7 143.2 0 0-69.7-18-115-26.4-45.3-8.5-89.3-5.6-89.3-5.6l-8.5 32-20.2 9.4c0 0-106.3-21.7-110.6-156z"/><path class="c" d="m1475.6 2372c0 0 53.7-95 68.3-188 14.6-93 3.7-150.4 3.7-150.4l-17.3-18.2c0 0-128.6 13-178.6 22.1-50.1 9-60 13.4-65.1 27.2-5.1 13.8-20.2 109.4 0 199.7 20.1 90.2 41.2 120.2 41.2 120.2 0 0 13 12.3 16.3 12.3 3.2 0 103.2-0.6 103.2-0.6 0 0 23.4-17.2 28.3-24.3z"/><g style="opacity:.4"><path class="c" d="m989.1 2161c0 0 72.8-22.1 153.6-38.5 80.8-16.4 99.6-17.8 99.6-17.8 0 0 0.9 126.6 45.6 165.4 0 0-22.5-93.8-16-126.5 6.5-32.8 9.4-46.9 9.4-46.9 0 0 146.5-34 257.7-41.9 0 0 5.6-10.4 8.6-13.6 2.9-3.2-10.1-27.2-10.1-27.2 0 0-155.9 18.1-277.2 41-121.2 23-219.3 55.1-239.9 67.5-20.6 12.5-31.3 38.5-31.3 38.5z"/></g><g style="opacity:.4"><path class="c" d="m1262.3 3364.3c0 0 28.7-60.1 76.9-88.8 48.2-28.7 133.4-27 189.6-20.6 0 0-15.6-11.7-37.8-18.9-22.2-7.3-63-18.3-63-18.3l-8.7 1.3c0 0 0.3-236.9 3.7-313.8 3.4-76.9 4.6-103.4 4.6-103.4 0 0-30.4-10.8-32-9.2-1.7 1.6-10.3 41.8-14.1 145.1-3.9 103.3-4.2 263.2-4.2 263.2l-15.9 16.8c0 0-75.5 34.4-97.3 79-21.8 44.5-1.8 67.6-1.8 67.6z"/></g><g style="opacity:.4"><path class="c" d="m1992.7 3373.3c0 0 26.3-46.5 92.7-65.7 66.4-19.1 188-19.7 186.9-20.2-1.1-0.5-30.5-15-80.5-22.5-50.1-7.4-62.7-5.3-62.7-5.3 0 0-45-43.8-99.4-98.9-54.4-55.2-80.7-54.8-80.7-54.8 0 0 45.8 79 71.8 105 26 26 49.3 47 49.3 47 0 0 7.4 14 0.1 17.6-7.4 3.5-58.2 15.4-72 43.3-13.9 27.9-5.5 54.5-5.5 54.5z"/></g><g style="opacity:.4"><path class="c" d="m2483.9 2054.9l249 152.3c0 0-63.8 62.6-85.7 140.7l-5.7 21.1c0 0 78-112.1 133.4-135.1 0 0 90.1 34.6 173.1 83.7 83 49.1 134.3 93.9 149.5 135.7 15.1 41.9-3.1-44.8-3.1-44.8 0 0-17.4-68.9-97.5-109.3-80.1-40.4-277.7-154.1-281.3-157-3.6-2.9-153-79.5-159.5-83.1-6.5-3.6-36.1-11.5-37.6-11.6-1.5-0.2-34.6 7.4-34.6 7.4z"/></g><g style="opacity:.2"><path class="d" d="m988.9 2151.6c0 0-2.8 127.1 78.7 145.8 81.6 18.8 354.5-20.6 410.8-58.3 56.3-37.7 69.2-78.1 69.2-78.1 0 0-23.8 133.8-47 170.9-23.3 37.1-25.1 46.1-28.8 46.6-3.7 0.5-14 20.2-41.6 21.4-27.6 1.3-212.2 7.2-239.9 8.9-27.6 1.6-138.5 69.7-161.3 70.9-22.8 1.1 11.4-63.9 12.5-103.4 1-39.5-34.7-55.2-34.7-55.2 0 0-62.8 87.7-71.5 93.6-8.6 6-21.4 23.1-25.7 18.2-4.3-4.8-11.6-27.8-13.2-40.2-1.6-12.4-16.8-103.9 5.4-152.8 22.2-48.8 87.1-88.3 87.1-88.3z"/></g><g style="opacity:.2"><path class="d" d="m1246.8 3374.1c0 0 338.8 16.2 395.1-14.1 56.3-30.3 66-160.3 51.9-185.2-14-24.9-134.1-101.2-165-214.1 0 0 166.8 76.6 282 88.2 115.1 11.5 118.2 30.8 149 75.4 0 0-11.9-23.9-33.9-24-22-0.2-38.7 5.7-38.7 5.7 0 0-74.4 71.8-85.2 111.7-10.9 39.8-21.2 54.9-19 84.5 2.2 29.6 14.3 119.9-53.8 128.2-68.2 8.3-269.6 23.7-367.8 9.8-98.2-13.8-113-21.8-114.6-66.1z"/></g><g style="opacity:.2"><path class="d" d="m1982.2 3383.1c0 0 319.1 39 386.9-14.5 67.9-53.4 11.6-216.5-5.8-329.1-17.3-112.6-87.9-179.6-149.7-171 0 0-216.6 35.5-419.1 16.1-202.5-19.4-358.4-82.8-358.4-82.8l-13.1-1.8 8.8-41c0 0 218.4 66.9 472.4 79.5 254.1 12.6 326.7-42.6 326.7-42.6 0 0 111.5-15.2 164.6-31.4l10.8 64.9 14.8-5.8c0 0 20.9 4 23.3 6.5 2.5 2.6 6.4 75.9 8.5 161.7 2.1 85.9 31.7 204.3 38.9 303.2 7.2 98.9 5.3 145.8-114.3 160.3-119.6 14.4-307.2 26.7-360.6-5.1-53.5-31.8-34.7-67.1-34.7-67.1z"/></g><g style="opacity:.2"><path class="d" d="m1458.1 2413.4c0 0-17.7 318.7 371.6 326.2 389.3 7.5 426.8-247.3 435.5-357 8.6-109.7 437.8 48.4 500.6 74.3 62.8 26 50.9 144.1 82.3 159.2 31.4 15.2 40 1.1 40-2.2 0-3.2 0-71.9 0-71.9 0 0 13-45 55.2-42.8 42.3 2.1 61.8 70.4 100.7 62.8 39-7.6 54.2-92.7 54.2-92.7 0 0 33.8 142-34.6 181.8-68.3 39.7-96.4-31.9-96.4-31.9 0 0-2.9-48.7-39.9-65.9-37-17.1-42.1 27.1-42.1 27.1 0 0 31.1 79.4-33.9 77.9-65-1.4-83.3-96.6-83-101 0.3-4.4-8.9-27.3-8.9-27.3 0 0-106.5-68.3-206.9-81.1-100.4-12.7-131.1-17.9-139.9-5.7-8.8 12.3-29.9 30-29.9 30l-12.1-3.9c0 0-2 127.9 16.6 270.3 0 0-227.8 56.3-540.7 40-312.9-16.2-432.2-74.1-432.2-74.1 0 0-4.7-6.3-6.7-23.3-2-17 10.6-117.2 26.6-185.1 16-67.9 23.9-83.7 23.9-83.7z"/></g><g style="opacity:.2"><path class="d" d="m1503.1 2329.2c0 0 70.5 9.4 118.9 0 48.4-9.4 72.7-48.6 68.7-47.4-3.9 1.2-67.3 20.2-67.3 20.2 0 0 21-29.8 63.6-50.1 42.6-20.2 56.3-20.2 56.3-20.2l9.7-24.7c0 0 2.9 47.1 81.8 53.6 78.8 6.5 117-44.5 117.8-40.1 0.7 4.3-12.9 51.5 2.2 56 15.1 4.5 32.5 14 32.5 14 0 0 80.1 73.3 129.9 83.4 49.8 10.1 94.6 8 94.6 8 0 0 5.8 31.9-83 31.1-88.8-0.8-151.6-24.6-174-42.7-22.4-18-41.7-42.1-43.7-43.4-2.1-1.4-14.8-9.3-24.5-9.3-9.8 0-52.5 5.2-72.8-2.9-20.4-8.1-40.9-12.7-40.9-12.7 0 0-23.6 58.5-129.8 72.1-106.3 13.6-147.5-26.3-140-44.9z"/></g><g style="opacity:.3"><path class="d" d="m1691.3 2611.4h39c0 0 4.9-113.2 16.2-114.3 11.2-1.2 23.5 1.7 42.2 15.4 18.8 13.7 126.7 125.6 126.7 125.6l85.8 3.6c0 0 28.9 25.1 28.5 24.7-0.3-0.3-129.8 2.1-129.8 2.1l-134.5-131.4-1.1 10.8c0 0-6 109.4-11.3 109-5.3-0.4-72.4-9.4-72.4-9.4z"/></g><g style="opacity:.3"><path class="d" d="m1782.6 2387.7c0 0 88.4 84 89.2 82.9 0.7-1.1 32.4-22.3 32.4-22.3l-7.2-28-47.6-68.7 54.8-4.2c0 0-27.5-22.8-30.3-23.4-2.9-0.6-56.5-7.9-60.1-9.3-3.7-1.3-25.1-11.2-25.1-11.2 0 0-48.9 29.1-47.8 31.6 1.2 2.4 41.7 52.6 41.7 52.6z"/></g><path class="d" d="m2629.4 2482.1c-6.8 0-12.5-5.4-12.8-12.4-0.3-8.7-5.8-214.4 152.2-300.7 6.2-3.4 14-1.1 17.4 5.1 3.4 6.2 1.1 14-5.1 17.4-144.3 78.7-138.9 275.3-138.9 277.3 0.3 7.1-5.2 13-12.3 13.3q-0.3 0-0.5 0z"/><path class="d" d="m1336.9 2415.9c-4.5 0-8.9-2.4-11.2-6.6-4.1-7.5-99.8-184.1-47.1-364.3 2-6.8 9.1-10.7 15.9-8.7 6.8 2 10.6 9.1 8.7 15.9-49.7 169.7 44 343 44.9 344.7 3.4 6.2 1.2 14-5 17.4-2 1.1-4.1 1.6-6.2 1.6z"/><path class="d" d="m1966.6 2798.8c-99.5 0-188-7.5-260.2-17.1-187.3-24.7-308.5-68.2-309.7-68.6-6.6-2.4-10.1-9.8-7.6-16.4 2.4-6.7 9.7-10.1 16.4-7.7 1.1 0.4 120.3 43.1 305 67.4 170.3 22.5 432.7 33.6 716-41.1 6.8-1.9 13.8 2.2 15.6 9.1 1.8 6.8-2.2 13.8-9.1 15.6-167.4 44.2-327.6 58.8-466.4 58.8z"/><path class="d" d="m1935.5 2903.3c-101.1 0-187.9-9-257.4-20.6-183.6-30.4-287.5-82.9-291.8-85.1-6.3-3.2-8.8-10.9-5.6-17.2 3.2-6.3 11-8.8 17.3-5.6 1 0.5 105.5 53.2 285.5 82.9 166.1 27.4 432.3 40.3 757.4-53.7 6.8-1.9 13.9 2 15.8 8.8 2 6.8-1.9 13.9-8.7 15.8-194.3 56.2-368 74.7-512.5 74.7z"/><path class="d" d="m1699.3 3199.4c-174.2 0-324.5-41.7-326.4-42.2-6.8-1.9-10.8-9-8.9-15.8 1.9-6.8 9-10.8 15.8-8.9 2.3 0.7 231 63.9 448.1 32.6 7-1 13.5 3.8 14.5 10.8 1 7-3.9 13.5-10.9 14.5-44.2 6.4-88.9 9-132.2 9z"/><path class="d" d="m2206.4 3218.1c-109.3 0-197.7-17.6-204.3-18.9-6.9-1.4-11.4-8.2-10-15.1 1.5-6.9 8.2-11.4 15.2-10 2.8 0.6 283.2 56.3 462.4-31.5 6.4-3.1 14.1-0.5 17.2 5.9 3.1 6.3 0.4 14-5.9 17.1-83.7 41-186 52.5-274.6 52.5z"/><path class="d" d="m1375 3202c30.2-3.8 60.8 1.4 89.6 10.4 27.7 10.1 56.7 19.7 75.1 44.6 3.2 5.8-21.2-0.6-23.2-0.8-13.1-2.8-26.4-8.1-39.5-10.9-32.3-8-65.7-12-98.9-10.2-21 0.6-23.8-29.7-3.1-33.1z"/><path class="d" d="m2084.9 3256.2c50.5-16.4 106.9-10.9 156.1 7.5 12.2 4.4 23.9 10.5 33.9 18.8 1.9 2.1 14 10.5 8.5 11.6-25.2-0.9-47.9-9.4-72.6-12.4-36.5-5.2-74.1-3.8-109.9 4.7-1.2 0.2-3.7 0.9-4.8 1.2-21.3 6.9-32.1-23.4-11.2-31.4z"/><path class="d" d="m1893.4 3116.8c-128.9 3.3-310.5-46.7-375.7-167.4-0.7-1.3 1-2.8 2.2-1.7 52.1 45.5 107.3 83.6 173.1 104.5 48.1 16.1 98.4 25.2 148.9 29.4 16.6 1.3 34.2 2.1 50.5 1.9 21.7 0.1 22.9 31.7 1 33.2z"/><path class="d" d="m2412.6 2500.7q-1.9 0-3.7-0.4c-1.3-0.3-127.6-30.5-137.9-153.9-10.7-127.3 34.6-252.3 112.6-311.1 7.4-5.5 17.8-4.1 23.4 3.3 5.5 7.3 4 17.8-3.3 23.3-68.2 51.3-109.1 167.2-99.5 281.8 8.3 99.3 111 123.8 112.1 124.1 8.9 2 14.6 11 12.5 19.9-1.8 7.7-8.6 13-16.2 13z"/><path fill-rule="evenodd" class="d" d="m2159.6 3488.9c-115.9 0-177.9-21.8-191.8-66.2-11.8-37.4-7.2-75 12.9-105.7 16.5-25.2 42.3-44.1 73.4-54.2-29.5-26.9-77.9-76.5-115.8-142-17.7-3.3-31-4-38.3-4.1-16.8 18.2-73.6 82.4-89.6 132.8-7.1 22.3-7.8 49.8-8.4 76.3-1.1 46.3-2.3 94.1-40.6 112.7-53 25.7-369.8 24.3-452.5 14.5-35.8-4.2-61.6-24.1-72.6-56.1-15.1-43.5 0.1-102.9 35.4-138.2 34.8-34.9 69.4-48.5 88.6-53.7-1.5-79.8-4.9-483.6 75.9-788-73.7 1.6-213.9 5.7-244.8 11.9-15.6 3.1-42.3 17.7-68.1 31.7-43.5 23.7-84.6 46.1-112.2 39.6-16.7-3.9-29.3-14.4-36.6-30.3-9.3-20.6-8.6-49.1 1.5-75.8-50.7 63.3-59.1 63.3-66.1 63.3-4.3 0-12.3-1.6-17.8-12.2-12.7-24.9-33.9-170 4.3-223.2 20.4-28.5 93.8-123 178.8-141.9 56.5-12.5 78.8-15.6 85.7-16.4 21-6.8 196.3-61.3 481.4-71.7 296.5-10.7 891.2 40 897.2 40.5 2.3 0.2 4.5 0.9 6.6 2l383.5 212.3c16.9 6 155.9 58.5 186.8 175.6 20.8 78.7 11.8 166.5-22.3 218.4-15.6 23.7-35.3 38-57 41.2-59.3 8.9-78.6-39.1-92.7-74.2-3.3-8.3-6.4-16.1-9.8-22.9-8.1-16.1-21.6-21.4-28.1-19.8-1.5 0.3-2.4 0.5-2.4 3.7 0 4.2 0.3 9.3 0.6 14.6 1.9 29.1 5.3 83.1-51 91.4-17.5 2.6-34.9-3.2-50.5-16.6-31.9-27.6-50.3-82.3-52.1-113.4-19.7-22.5-172-92.3-317.6-92.3q0 0 0 0c-9.6 42.4-7.8 150.7 12.7 272.4l3 18.1c20.1 118.7 21.7 128.4 20.3 233.2-0.7 53.2 8.6 102.8 18.5 155.2 9.7 51.3 19.8 104.3 20.5 163.4 1.5 120-5.4 162.4-150.4 179.9-78.3 9.5-144.3 14.2-198.5 14.2zm-261.9-405.6c9.3 0 28.7 0.9 54.7 6.3 4.7 1 8.8 4 11.1 8.2 54 96.9 136.3 160.2 137.1 160.9 5.4 4.1 7.7 11.1 5.9 17.7-1.8 6.5-7.4 11.3-14.2 12.1-36.4 3.9-66.9 21-83.7 46.7-14.8 22.6-17.9 49.4-9.1 77.5 6.6 20.8 54.2 65.2 354.6 28.9 119.3-14.4 122.5-33.5 121.1-146.4-0.7-56.1-10.5-107.7-19.9-157.6-9.8-51.7-19.9-105.3-19.1-161.9 1.4-101.7 0.2-108.8-19.8-227.1l-3.1-18.2c-21.9-130.4-25.2-256.8-7.7-300.6 2.5-6.1 8.4-10.3 15-10.4 160-4.4 349.8 76.3 362.8 115.3 0.5 1.7 0.8 3.5 0.8 5.3 0 23.5 15.9 71.5 40.8 93 8.2 7.1 16 10 23.9 8.9 22-3.3 25.1-17.6 22.6-56.3-0.4-6-0.8-11.6-0.8-16.8 0-17.9 11.1-32.1 28.1-36.2 20.8-4.9 50 6.4 65.6 37.4 4 8.1 7.5 16.9 10.9 25.4 16.4 40.8 26.7 58.2 56.9 53.7 15.2-2.3 26.9-15.7 34-26.6 24.4-37 39.4-110.7 18-191.6-27.6-104.6-165.4-152.6-166.8-153.1q-1.4-0.5-2.7-1.2l-381.6-211.2c-49.8-4.2-607-50.3-889.6-40.1-292.5 10.6-472 70-473.8 70.6q-2.1 0.7-4.3 0.9c-0.6 0-18.2 1.5-83 15.8-73.5 16.4-140.3 102.8-159 128.8-23.6 33-15.7 129.9-6.8 171.3 17.5-19.3 47.1-56.3 72.1-89.2 2.9-4 7.5-6.4 12.4-6.6 4.9-0.3 9.7 1.7 13 5.2 2.4 2.6 22.6 26.3-1.8 72.3-11 20.9-14.2 46.8-7.4 61.7 2.9 6.4 7.3 10.2 13.8 11.7 15.3 3.6 57.7-19.5 88.6-36.4 29.3-16 57-31 77.6-35.2 44.3-8.8 263.6-12.8 273-12.9 5.1 0 10.2 2.3 13.4 6.5 3.3 4.1 4.3 9.6 2.9 14.7-94.8 334.2-80.4 808.7-80.3 813.4 0.3 8.8-6.3 16.4-15 17.2-0.3 0-41.4 4.9-83.7 47.1-26 26-38.3 72.6-27.5 103.8 6.9 19.8 22.1 31.2 45.2 34 93 11 393.6 8.1 433.9-11.5 20.1-9.7 21-45.6 21.9-83.5 0.7-28.9 1.4-58.8 10-85.6 21.1-66.4 98.7-147.4 102-150.8 2.9-3 6.8-4.8 10.9-5.1 0.3 0 2.4-0.2 6.1-0.2z"/><path class="d" d="m1458.1 2416.6c-3.4 0-6.8-1-9.7-3.2-7.5-5.4-9.1-15.8-3.8-23.2 1.2-1.6 116.1-164.1 86.6-373.9-1.3-9.1 5.1-17.5 14.2-18.8 9.1-1.3 17.5 5.1 18.8 14.2 31.4 223.4-87.5 391-92.6 398-3.2 4.5-8.3 6.9-13.5 6.9z"/><path fill-rule="evenodd" class="d" d="m2111.3 2426.2c-7.1 0-14.3-0.2-21.5-0.7-54.8-3.8-131.5-23.6-190-95.7-20.3 6.1-69.7 16-114.4-13-22.8 20.2-91 74.6-165.1 77.2-90.2 3.1-134.4-45.8-136.2-47.9-3.4-3.8-4.2-9.2-2.1-13.8l9-19.5q0.9-2 2.4-3.6c5-5.1 119.4-121.3 242.8-97.1 8.3-34.2 36.7-81.3 103.9-81.3q0.7 0 1.4 0c89 0.8 117.5 47.7 124.5 92.2 27.2-4.5 88-10 140.4 16.8 57.2 29.2 114.1 108.6 119.5 143 1.4 8.8-0.3 15.6-5.1 20.4-10.3 10.3-56.7 23-109.5 23zm-207.1-124.3c4 0 7.8 1.8 10.3 5.1 97.7 129.1 261.2 90.1 286.1 79-3.1-20.2-50.6-95.1-105.8-123.4-60-30.6-136.2-12.1-136.9-11.9-3.7 0.9-7.6 0.1-10.7-2.1-3.1-2.3-5-5.8-5.2-9.6-3.4-55-36.4-82-100.8-82.6q-0.5 0-1 0c-73.3 0-80.6 69.5-80.9 72.5-0.3 3.8-2.3 7.2-5.5 9.4-3.1 2.1-7 2.8-10.7 1.8-107.1-30.2-215.9 71.9-229.8 85.5l-4.2 9.1c13.3 11.3 49.4 35.7 110.3 33.7 79.1-2.7 155.3-76.5 156-77.2 4.6-4.5 11.9-4.9 16.9-1 47 36.9 106.5 13 107.1 12.7 1.5-0.6 3.2-1 4.8-1z"/><path class="d" d="m1784.4 2313.1c-1.8 0-3.7-0.4-5.5-1.2-49.6-23.7-45.3-82.7-45.1-85.2 0.6-7.1 6.8-12.4 13.8-11.7 7.1 0.6 12.3 6.7 11.8 13.8-0.2 1.9-2.9 44 30.5 59.9 6.4 3.1 9.1 10.7 6.1 17.1-2.2 4.6-6.8 7.3-11.6 7.3z"/><path class="d" d="m1904.3 2327.6c-4 0-7.9-1.9-10.4-5.3-4.2-5.7-2.9-13.7 2.8-17.9 0.3-0.2 34.1-25.6 45.7-69.4 1.8-6.9 8.8-11 15.7-9.2 6.8 1.9 10.9 8.9 9.1 15.7-14 52.9-53.7 82.4-55.4 83.6-2.3 1.7-4.9 2.5-7.5 2.5z"/><path class="d" d="m1938.9 2263.7c55.4 4.5 121 26.7 162.4 64.6 4.1 4.6 8.1 9.3 11.5 14.5 0.6 0.8-0.3 2-1.3 1.7-15.7-5.5-28.9-12.9-42.9-19.4-41-19.3-86.7-30.5-131.4-35.8-16.7-1.6-15.2-26.2 1.7-25.6z"/><path class="d" d="m1755.4 2278.9c-21.7 4.9-51.9 11.8-73.1 17.3-12.1 3.3-24.2 6.6-36.1 10.4-11.9 4-23.7 7.5-37.4 9.1-0.6 0.1-1.2-0.4-1.3-1 7.7-11.5 20.4-18.6 32-24.6 23.5-11.4 47.9-20.5 73-27.6 12.5-3.5 25-6.5 38.1-8.8 7-1.1 13.6 3.5 14.8 10.5 1.1 6.8-3.4 13.3-10 14.7z"/><path class="d" d="m1847.9 2336.2c-2.2 0-4.5-0.6-6.5-1.8-6.1-3.6-8.2-11.4-4.6-17.5 5.5-9.4 18.6-39.4 7-53.1-14.1-16.8-27.7-46.1-19.2-73.6 4.8-15.6 18.9-36.6 58.5-47.7 6.8-1.9 13.9 2.1 15.8 8.9 1.9 6.8-2.1 13.9-8.9 15.8-22.9 6.4-36.7 16.7-40.9 30.5-5.1 16.4 3.9 37.2 14.3 49.6 25.2 29.9-1.4 77.3-4.5 82.6-2.4 4-6.6 6.3-11 6.3z"/><path class="d" d="m1735.7 2237.9c-1.8 0-3.5-0.3-5.2-1.1-5.6-2.4-139-61.8-191.9-194.1-2.6-6.6 0.5-14 7.1-16.6 6.6-2.7 14 0.5 16.7 7.1 48.9 122.3 177.1 179.6 178.4 180.1 6.5 2.9 9.4 10.4 6.6 16.9-2.1 4.8-6.8 7.7-11.7 7.7z"/><path class="d" d="m2068.7 2251.9c-5.7 0-10.9-3.8-12.4-9.6-1.8-6.9 2.4-13.8 9.2-15.6 1.5-0.4 146.5-38.1 268.8-131.7 5.6-4.3 13.6-3.3 17.9 2.3 4.3 5.7 3.3 13.7-2.4 18-126.5 96.9-271.8 134.7-277.9 136.2q-1.6 0.4-3.2 0.4z"/><path fill-rule="evenodd" class="d" d="m2040 2685.6h-135.8c-3.3 0-6.5-1.3-8.9-3.7l-119.9-117.1-9.7 93.4c-0.7 6.9-6.8 12.1-13.7 11.5l-72.4-5.8c-4.9-0.4-9.2-3.6-11-8.3-1.3-3.5-2.6-7.1 24.4-300.6 0.6-7 6.9-12.3 13.9-11.6 7.1 0.7 12.2 6.9 11.6 14-9 97.8-21.8 240.9-24.6 281.9l47.6 3.8 11.2-107.3c0.5-4.9 3.8-9.1 8.4-10.8 4.6-1.6 9.8-0.5 13.3 2.9l135.1 132.1h99.2l-102.3-100.8c-4.3-4.3-5-11.1-1.7-16.2l68.4-104.1-102.8-108.7c-4.9-5.2-4.6-13.3 0.5-18.2 5.1-4.8 13.2-4.6 18.1 0.5l109.8 116.2c4.1 4.3 4.7 10.8 1.4 15.8l-68.2 103.8 117 115.4c3.7 3.6 4.9 9.1 2.9 13.9-2 4.8-6.7 8-11.8 8zm-346.6-35.5z"/><path class="e" d="m1886.6 2449l-33 48.1-71-64 7.6-89.5z"/><path fill-rule="evenodd" class="d" d="m1853.6 2509.9c-3.1 0-6.2-1.2-8.6-3.3l-71-63.9c-2.9-2.7-4.5-6.7-4.1-10.6l7.5-89.6c0.5-5 3.8-9.4 8.7-11 4.8-1.7 10.1-0.3 13.5 3.5l96.4 105.4c4 4.4 4.5 10.9 1.1 15.8l-32.9 48.1c-2.1 3.1-5.4 5-9.1 5.5q-0.7 0.1-1.5 0.1zm-57.7-82l55.4 49.9 18.9-27.6-69.7-76.3z"/><g style="opacity:.2"><path class="d" d="m1547.6 2080.9c0 0 100.4 96.5 300.3 125.2 200 28.7 453.7-46.9 453.4-54.5-0.3-7.6 8.6-38.1-19.5-46.5-28.2-8.4-127.8-24.2-127.8-24.2 0 0-337.8-25.6-385.5-32.3-47.6-6.7-251.3 8.3-220.9 32.3z"/></g><path class="c" d="m1696.3 922.2c0 0 61.4-160.9 371.1-323.3 309.7-162.4 567.4-171.1 595.5-125.6 28.2 45.5-117.5 258.4-408.5 428.1"/><path class="g" d="m1937 796.5c0 0 249.5-214.9 554.8-269 45.5 21.6-195.3 243.9-410.6 312.5"/><path class="c" d="m1954.8 2157.4c0 0-381.2-20.2-583.3-219.5-202.1-199.2-83.7-358-20.2-438.8 31.8-63.6 46.9-304.7 207.2-464.9 160.2-160.3 435.3-279.4 459.1-246.9 23.8 32.5 0 65 0 65 0 0 189.8-41.9 218.7-17.3 28.9 24.5-8.7 49 7.2 60.6 15.9 11.5 40.4 10.8 40.4 10.8 0 0 132.1-132.1 493.8-197 361.6-65 519.7-21.7 537 19.4 17.4 41.2-93.1 218.8-307.5 318.4-214.4 99.6-417.9 116.9-417.9 116.9 0 0 71.4 97.5 86.6 236.1 15.2 138.6 6.5 275 15.2 402.8 8.6 127.7-89.6 391.9-736.3 354.4z"/><path class="b" d="m2645.5 1466.7c0 0-113.8-48.8-224.2-125.3-110.3-76.6-181.9-109.9-270.6-87.8-88.7 22.2-224.8 96.4-288.3 76.6-63.5-19.9-128.7-101.7-203.9-135.5-75.1-33.8-215.5 27.4-215.5 27.4l-19.9 20.5c0 0-46.3 145.9-48.7 167.9-2.4 22-18.3 77.3-18.3 77.3l4.7 21.3c0 0 68.2 81.7 112.1 80.5 44-1.1 105.1-15.1 186.3-48.7 81.2-33.5 140.5-27.1 210.5 6 69.9 33 115.2 72.6 167.3 118.3 52 45.7 133.3 80.2 235.1 72.1 101.7-8 356.5-39.2 360.8-39.5 4.3-0.2 37.7-2.2 37.7-2.2 0 0 16.2-10.2 16.1-16.6-0.1-6.5-4.6-192.2-4.6-192.2l-19.1-15.4z"/><path class="g" d="m2479.5 1041c-24.3-14.9-22.7-50.9 2.2-64.7 60-33.2 192.2-101.6 320.5-136.3 173.3-46.9 314.7-74.3 336.4-58.5 21.7 15.9-103.9 124.2-319.1 206.5-215.1 82.3-314.7 67.8-339.2 53.4q-0.4-0.2-0.8-0.4z"/><g style="opacity:.4"><path class="c" d="m1410.7 1282.4c0 0 145.6-55.7 209.5-45.8 63.9 9.8 136.4 134.7 252.3 137.2 115.8 2.5 219.8-98.2 367-63.5 147.3 34.6 218.8 135.7 366 151.2 0 0-130.8-84.5-192.6-126-61.8-41.4-141-97.4-236.2-84.6-95.2 12.8-230.2 82.5-297 80.7-66.8-1.8-175.8-132.1-242.5-144.4-66.8-12.3-176.3 29.5-179.5 29.7-3.2 0.3-26.6 17.5-26.6 17.5z"/></g><g style="opacity:.3"><path class="d" d="m1594.5 1661.5c0 0 39.8 52.7 80.9 58.4 41.2 5.8 52.7-49 52.7-49 0 0 48.4 24.2 60.6 20 12.3-4.2 22.4-4.2 22.4-4.2l9.4-3.6c0 0-15.9 43.3 5.8 65 21.6 21.7 99.5 24.5 137.1 0 0 0-20.9 50.6-90.9 48.8-70-1.9-111.2-46.7-111.2-46.7l-10.1-5.7c0 0-59.9 31.6-111.5-1.2 0 0-45.3-43.5-45.2-81.8z"/></g><g style="opacity:.2"><path class="d" d="m1384.7 1531.9l17.9-56.8c0 0 77.9 67.3 173.2 56.8 95.3-10.5 180.8-107.7 255.5-94.3 74.7 13.5 141.9 150.6 288.1 202.7 146.1 52.2 285.8-55 331.3-184.9 0 0 84.4 37.9 184.1 56.3l-1.9 186.1c0 0-96.7 13.6-200.5 23.3-103.7 9.7-221.8 28.1-305.3-0.8-83.5-28.9-182.1-162.6-305-191-122.9-28.4-196.5 52-303.7 60.3-83.5 6.5-133.7-57.7-133.7-57.7z"/></g><g style="opacity:.2"><path class="d" d="m1329.3 1527.9c0 0-96.4 252.7 196.7 415.8 293.1 163.2 757.9 102 861.9-146.8 8.6-20.7 7.2-54.5 5-71.9 0 0 95.3-9.5 153.1-17.3 57.7-7.9 86.9-9.9 86.9-9.9 0 0 17 171.2-30.6 249.2-55.1 90.1-427.9 291-1097.5 87.5 0 0-174.1-98-227.5-229.7-53.4-131.8 34.8-254.2 52-276.9z"/></g><g style="opacity:.2"><path class="d" d="m2562.6 1052.1c0 0-30.3-27.3-19.5-54 10.8-26.7 249.7-110.1 393.7-153.4 144.1-43.3 204.2-47.6 204.2-47.6l-13.6-20.1c0 0-126.6 5-302.6 56.9-176 52-334.1 128.1-355.2 153-21.1 24.9-6.1 44.5 13.5 56 19.6 11.5 79.5 9.2 79.5 9.2z"/></g><g style="opacity:.2"><path class="d" d="m2021.4 781.9c0 0 213.8-129.9 316.7-179.7 102.8-49.8 159.3-65 159.3-65l-35.3-3.9c0 0-82.6 4.1-211.7 70.2-129.1 66.1-212.6 117.3-240 137.1-27.4 19.7-32.9 31-32.9 34.3 0 3.2-8.1 6.8 9.8 7 17.9 0.3 34.1 0 34.1 0z"/></g><g style="opacity:.2"><path class="d" d="m1797.8 848c0 0 163.5-144.1 355.1-231.8 191.7-87.7 332.4-88.7 332.4-88.7 0 0-144.9 29.6-280.9 97.6-135.9 68-232.2 143.4-232.2 143.4 0 0-28.4 25.2-42.2 30.4-13.8 5.2-59.1 20.4-63.5 22-4.3 1.6-68.7 27.1-68.7 27.1z"/></g><g style="opacity:.3"><path class="d" d="m2232 826.3c0 0 149.7-82.9 265.4-168.7 115.7-85.8 165.5-184.3 165.5-184.3 0 0 8.8 32.7-60 137.6-68.8 105-252.5 235.6-259.1 237.1-6.5 1.4-76.1 45.5-76.1 45.5 0 0-17.7 0.7-24.2-8.7-6.5-9.4 2.6-37.1 1.7-38.8-0.8-1.6-13.2-19.7-13.2-19.7z"/></g><g style="opacity:.2"><path class="d" d="m2459.4 1014c0 0-29.3-65.3 85.5-129.2 114.8-63.9 356.2-115.9 469.9-125.6 113.7-9.8 132.1 22.8 132.1 22.8 0 0-41.5-4.3-140.9 9.7-99.5 14-278.1 68.2-383.2 111.5-105 43.3-164.5 85.2-163.4 110.8z"/></g><g style="opacity:.2"><path class="d" d="m2587.1 1155.5c0 0 162.4-58.5 386.6-154.9 224.1-96.3 324.8-273.9 324.8-273.9l16.2 2.1c0 0-13.3 104.4-148.5 217.9-135.2 113.5-437.2 214.2-579.1 208.8z"/></g><path fill-rule="evenodd" class="d" d="m2076.3 2177.7q-58.7 0-122.4-3.7c-16.2-0.9-389.9-23-594.1-224.2-214.9-211.9-81.5-384.7-22.7-459.6 7.4-15.8 14.7-45.3 23.1-79.3 26.2-106.7 65.9-267.8 186.5-388.5 144.5-144.5 388.4-262.4 459.2-256.9 11.5 0.9 19.9 4.9 25.1 12 13.1 17.8 15.3 36.6 12.8 52.4 18.5-3.6 43.6-8.2 69.9-12 97.1-14 122.3-5 133.4 4.4 25.7 21.9 16 46.8 11.3 58.8-0.3 1-0.8 2.2-1.2 3.3 6.5 3.3 14.6 4.7 20.4 5.2 28.7-25.6 170.2-137.9 497.1-196.6 346.9-62.3 531-28.5 555.4 29.4 14.9 35.4-28.1 105.3-69.5 154.4-36.7 43.6-117.6 125.6-246.4 185.5-171.2 79.5-333.5 107.1-396.3 115.3 22.5 37.7 63.3 117.9 74.6 220.8 8.8 80.8 9.6 160.9 10.4 238.3 0.6 57.4 1.1 111.6 4.8 165.1 2.4 36.5-1 130.7-86.3 216.8-104.7 105.8-287.8 159.1-545.1 159.1zm-75.6-1379.2c-18.6 0-73.7 13.5-166.7 61.3-101.4 52.1-197.6 120-263.7 186.2-114.1 114-152.4 269.8-177.8 372.8-9.5 38.6-17 69-26.3 87.7q-0.8 1.5-1.8 2.8c-57.2 72.9-176.3 224.4 18.8 416.8 195.2 192.4 568.7 214.5 572.5 214.7q0 0 0 0c41.7 2.4 81 3.5 117.9 3.5 307.6 0 454.4-78.7 524.1-149.1 75.8-76.5 78.9-159.1 76.7-191.1-3.7-54.5-4.2-109.2-4.8-167.1-0.8-76.6-1.6-155.8-10.3-235-14.5-132.6-82.8-227.1-83.5-228-3.5-4.9-4.2-11.3-1.7-16.8 2.5-5.4 7.8-9.2 13.8-9.7 2-0.1 203.3-18.3 412.3-115.4 123-57.2 200-135.3 234.9-176.7 53.5-63.4 68.4-110.2 64.3-120.1-8-18.9-125.4-80.2-518.8-9.5-350.9 63-483.6 191.1-484.9 192.4-3 3-7.1 4.7-11.3 4.9-3.1 0.1-30.8 0.4-50.7-14-17.1-12.5-9.8-31.1-6.3-40.1 4.8-12.4 5.2-15.4-1.9-21.4-15.6-10.9-118.3 2-204.3 20.9-6.8 1.5-13.8-1.3-17.6-7.1-3.8-5.8-3.6-13.4 0.5-19 1.6-2.2 15.1-22.5 1.2-43.5q-1.7-0.4-4.6-0.4z"/><path class="d" d="m2682.1 1492.3q-1.6 0-3.2-0.3c-97.2-18.5-173.8-71.9-247.9-123.6-67.5-47.1-131.3-91.6-200.9-99.7-84.3-9.7-159.9 20.4-226.6 47-48.2 19.2-89.9 35.8-125.4 32.5-46-4.4-95.3-43.2-143-80.7-36.3-28.6-73.9-58.1-101.4-64-51.6-11-156.6 23.1-192.7 37.2-8.6 3.3-18.3-0.9-21.6-9.5-3.3-8.6 0.9-18.2 9.5-21.6 5.6-2.2 139.8-54 211.7-38.7 35.1 7.5 74 38.1 115.1 70.4 43.9 34.6 89.3 70.3 125.6 73.7 27.4 2.6 65.7-12.6 109.9-30.2 66.9-26.7 150.1-59.8 242.7-49.2 77.9 9 145.1 55.9 216.1 105.5 71.2 49.6 144.9 101 235.2 118.1 9 1.8 14.9 10.5 13.2 19.5-1.5 8-8.5 13.6-16.3 13.6z"/><path class="d" d="m2233 1755.7c-71.9 0-140-18.8-215.6-85.3-114.2-100.5-196.8-139.9-276-131.7-38.1 4-80.6 19.9-121.7 35.3-46.9 17.7-91.2 34.3-127.7 32.6-69.7-3.1-149.8-92.7-153.2-96.5-6.1-6.9-5.4-17.4 1.5-23.5 6.9-6.1 17.4-5.5 23.5 1.4 20.4 23 83.5 83.3 129.8 85.4 29.5 1.3 70.8-14.2 114.4-30.5 43.1-16.2 87.6-32.9 129.9-37.3 89.5-9.3 179.6 32.5 301.5 139.8 109 95.8 198.9 82.3 323.3 63.5l17-2.5c134.9-20.1 304.8-28.2 306.5-28.3 9.3-0.5 17 6.6 17.4 15.8 0.4 9.2-6.7 17-15.8 17.4-1.7 0.1-170 8.1-303.2 28l-16.9 2.5c-47.9 7.2-92 13.9-134.7 13.9z"/><path class="d" d="m1696.3 938.8c-2 0-4-0.3-6-1.1-8.5-3.3-12.8-12.9-9.5-21.5 2.6-6.8 67.2-168.6 378.8-332 302.9-158.8 579-181.7 617.5-119.6 6.6 10.6 7.6 25.2 3.2 43.1-20 80-162.7 259.5-417.5 408.1-7.9 4.6-18.1 1.9-22.8-6-4.6-8-1.9-18.2 6-22.8 243.8-142.1 383.9-315.1 401.9-387.3 3.4-13.3 1-17.5 0.8-17.6-6.2-10-58.9-25.8-175.4-7.5-122.6 19.3-264 68.7-398.2 139.1-299 156.8-362.6 312.9-363.2 314.5-2.6 6.6-8.9 10.6-15.6 10.6z"/><path class="d" d="m2081.2 852.8c-5.4 0-10.4-3.5-12.2-8.9-2.1-6.8 1.6-14 8.3-16.1 86.4-27.5 188.8-84.8 281-157.2 81.3-63.9 118.7-111 125.3-128.6-293.5 55.9-535.8 262.1-538.3 264.2-5.3 4.6-13.4 4-18-1.4-4.7-5.3-4.1-13.4 1.3-18 2.5-2.2 255.7-217.8 561-272 2.6-0.4 5.3-0.1 7.7 1.1 8.9 4.2 13.6 12.6 12.9 23-4.2 61.6-235.2 252.8-425.1 313.3q-1.9 0.6-3.9 0.6z"/><path fill-rule="evenodd" class="d" d="m2546.4 1065.3c-47.9 0-68.6-10.5-72.6-12.8l-0.9-0.6q0 0 0 0c-15.2-9.2-24-25.5-23.6-43.4 0.4-18.3 10.2-34.6 26.2-43.4 66.1-36.6 196-103 323.4-137.5 88.9-24.1 167.1-42.4 226.1-53 89-16 111.2-10.7 121.2-3.4 5.7 4.2 8.4 10.9 7.4 18.4-5 37.1-132.7 135.1-329.5 210.4-136.6 52.2-224.2 65.3-277.7 65.3zm-60.2-35.3l0.5 0.3c0.8 0.5 76.3 42.1 328.3-54.3 193.4-74 296.6-160.5 311.4-185.6-22-3.9-109.1 4.6-320.8 61.9-124.8 33.8-252.6 99.2-317.7 135.2-7.9 4.4-12.8 12.4-13 21.6-0.2 8.8 4 16.4 11.3 20.9z"/><path class="d" d="m2305.8 1510.3c-12.1 75.7-76.8 128.8-144.4 118.7-67.7-10.1-112.8-79.7-100.7-155.4 4.5-28.4 16.4-53.6 33.1-73.5 0 0 140.5-42.6 149.6-35.1 36.9 30.1 71.2 90 62.4 145.3z"/><path class="c" d="m2176.4 1484.2c-3.8 24.6-23.4 42-43.8 38.9-20.3-3.1-33.8-25.6-29.9-50.2 3.8-24.6 23.4-42 43.7-38.9 20.4 3.2 33.8 25.6 30 50.2z"/><g style="opacity:.35"><path class="c" d="m2237.4 1569.6c-12.5 12.7-30.7 15.7-40.5 6.6-9.8-9.1-7.6-26.8 4.9-39.6 12.6-12.7 30.8-15.7 40.6-6.6 9.8 9.1 7.6 26.8-5 39.6z"/></g><path class="d" d="m2285.9 1359.6c-34.2 27.9-77.3 43.5-119.4 54.1-21.1 5.3-41.7 9.7-62.2 14.5-21.7 5.2-48.9 6.5-68.7-6.7-2.7-1.5-3.7-5.1-2.1-7.8 1-1.8 2.9-2.9 4.8-2.9 5.6-0.2 11 0 15.8-0.4 14.8-1.1 27.3-6.8 41.9-11.7 40.9-13.4 82.5-21.4 123.7-32.1 20.3-5.1 40.3-10.9 61-16.8 5.7-1.8 10 6 5.2 9.8z"/><path class="d" d="m1484.3 1367.2c-12.1 71.2 24.3 140.1 81.3 153.9 57 13.7 112.9-33 125-104.2 4.5-26.8 2.2-53.2-5.4-76.4 0 0-100-85-109.5-81.4-38.1 14.4-82.6 56-91.4 108.1z"/><path class="c" d="m1596.1 1385.2c-3.8 23.1 7 45.3 24.1 49.6 17.2 4.2 34.2-11.1 38-34.2 3.8-23.2-7-45.4-24.2-49.7-17.1-4.2-34.1 11.1-37.9 34.3z"/><g style="opacity:.35"><path class="c" d="m1519.9 1450.3c6.5 15.9 20.4 24.8 31.1 20 10.7-4.9 14.1-21.7 7.6-37.6-6.5-15.9-20.5-24.8-31.1-19.9-10.7 4.8-14.1 21.7-7.6 37.5z"/></g><path class="d" d="m1551.1 1233.1c25.9 20.6 62.5 48.4 89.1 68.2 15 11.4 30.4 23.1 45 36.3 10 9.1 17.8 18.3 28.9 24.8 4.5 3.6 18.8 4.8 15.4 13.7-0.9 1.7-2.5 2.9-4.3 3.2-10.1 2.2-22.5 1.5-32.4-2.6-27.9-12.2-48-31.5-72.8-49-15.2-11.8-30.1-24.7-43.5-39.2-13.3-14.6-25.4-30.6-34.1-48.5-2.6-5.3 4.1-10.7 8.7-6.9z"/><path class="d" d="m1768.5 1691.1c0 0-73.6-62.1-59.2-88.1 14.5-26 121.3-14.4 153.1 37.5 0 21.7-93.9 50.6-93.9 50.6z"/><path class="d" d="m1599.3 1657.1c10.2 30.3 27 65.9 56.2 79.3 28.1 11.1 61.4 6.5 86.8-9.5 8.5-6.8 21.6-4.7 26.9 5.1 26.7 46.4 102.7 62.9 150.6 43.2 17.6-7.4 33.4-21.3 42.7-38 2.7-6.3 12.4-3 10.5 3.7-31.5 97.5-190.2 87.7-234 5.1 0 0 25.1 6.3 25.1 6.3-26.2 18.2-59.7 25.8-91.1 20-54.4-7.6-82.5-63.7-84.6-113.6-0.2-6.7 9.2-8.1 10.9-1.6z"/><path class="d" d="m1754.1 1755.7q-2.4 0-4.8-0.7c-8.8-2.7-13.8-11.9-11.1-20.8l14.4-47.9c2.6-8.8 11.9-13.8 20.7-11.2 8.8 2.7 13.8 12 11.2 20.8l-14.5 47.9c-2.1 7.3-8.7 11.9-15.9 11.9z"/><g style="opacity:.4"><path class="c" d="m1707.5 1598c0 0 28.9 23.1 82.7 30.6 53.8 7.6 66.5 8.2 69 7.2 2.5-1-15.6-36.8-62.5-46.2-46.9-9.3-89.2 8.4-89.2 8.4z"/></g><path fill-rule="evenodd" class="d" d="m1768.5 1707.7c-3.8 0-7.7-1.3-10.7-3.9-25.3-21.3-82.1-74.6-63-108.9 7.6-13.8 25.6-21.3 52-21.9 46.1-0.9 105.4 19 129.8 58.9 1.6 2.6 2.4 5.6 2.4 8.6 0 8.4 0 34-105.6 66.5q-2.4 0.7-4.9 0.7zm-44.4-96.6c-0.4 9.5 21.9 37.6 48.3 61.3 30.2-10 58.8-22.8 69.8-31.1-17.8-20.1-51.5-31.6-79.7-34.4-22.6-2.2-35.3 1.7-38.4 4.2z"/></svg>